<svg aria-hidden="true" style="position: absolute; width: 0; height: 0; overflow: hidden;" version="1.1" xmlns="http://www.w3.org/2000/svg" xmlns:xlink="http://www.w3.org/1999/xlink">
   <defs>
      <symbol id="icon-cook" viewBox="0 0 27 32">
         <path d="M12.433 5.444v-2.541c0-0.265 0.212-0.487 0.487-0.487 0.265 0 0.487 0.212 0.487 0.487v2.541h-0.974zM10.178 5.444h-0.964l-0.847-2.414c-0.106-0.296 0.116-0.604 0.434-0.604 0.191 0 0.371 0.127 0.434 0.307l0.942 2.711zM15.652 5.444h0.964l0.847-2.414c0.106-0.296-0.116-0.604-0.434-0.604-0.191 0-0.371 0.127-0.434 0.307l-0.942 2.711zM9.229 8.343c-0.060 0-0.119-0.019-0.169-0.054s-0.086-0.085-0.106-0.142c-0.020-0.057-0.021-0.119-0.004-0.177s0.052-0.109 0.1-0.146c0.585-0.41 1.303-0.585 2.012-0.492 0.047 0.006 0.092 0.023 0.131 0.050s0.071 0.063 0.093 0.105c0.022 0.042 0.033 0.089 0.033 0.136s-0.012 0.094-0.034 0.136c-0.028 0.050-0.069 0.091-0.121 0.117s-0.109 0.036-0.165 0.029c-0.557-0.067-1.12 0.066-1.588 0.376-0.051 0.040-0.116 0.063-0.181 0.064zM16.626 8.343c-0.064 0.001-0.126-0.020-0.177-0.059-0.469-0.308-1.031-0.441-1.588-0.376-0.038 0.006-0.078 0.004-0.115-0.006s-0.073-0.027-0.104-0.051c-0.031-0.024-0.057-0.053-0.076-0.087s-0.031-0.071-0.036-0.11c-0.005-0.039-0.001-0.078 0.010-0.115s0.029-0.072 0.054-0.102 0.055-0.055 0.089-0.073c0.034-0.018 0.072-0.029 0.111-0.033 0.708-0.089 1.425 0.086 2.012 0.492 0.048 0.037 0.083 0.088 0.1 0.147s0.016 0.12-0.004 0.177c-0.020 0.057-0.057 0.107-0.107 0.142s-0.107 0.054-0.168 0.053zM10.347 8.789c-0.709 0-1.302 0.487-1.461 1.144-0.053 0.18 0.095 0.36 0.286 0.36h0.466c-0.038-0.143-0.043-0.293-0.015-0.439s0.091-0.282 0.181-0.4c0.090-0.118 0.206-0.213 0.339-0.279s0.279-0.1 0.427-0.1c0.148 0 0.294 0.035 0.427 0.1s0.249 0.161 0.339 0.279 0.152 0.255 0.181 0.4c0.029 0.145 0.024 0.295-0.015 0.439h0.074c0.159 0 0.275-0.138 0.244-0.296-0.127-0.688-0.741-1.207-1.472-1.207zM15.504 8.789c0.709 0 1.302 0.487 1.461 1.144 0.042 0.191-0.095 0.371-0.286 0.371h-0.466c0.021-0.085 0.032-0.169 0.032-0.254 0-0.529-0.434-0.964-0.964-0.964-0.148 0-0.294 0.035-0.427 0.1s-0.249 0.161-0.339 0.279c-0.090 0.118-0.152 0.255-0.181 0.4s-0.024 0.295 0.015 0.439h-0.074c-0.037 0.001-0.074-0.007-0.107-0.022s-0.063-0.038-0.087-0.067c-0.023-0.029-0.040-0.062-0.049-0.098s-0.009-0.073-0.001-0.11c0.138-0.699 0.741-1.218 1.472-1.218z"></path>
         <path d="M10.569 9.488c0.095-0.001 0.189 0.023 0.271 0.069s0.152 0.113 0.202 0.194 0.076 0.174 0.079 0.269c0.002 0.095-0.020 0.189-0.065 0.272h-0.974c-0.044-0.084-0.066-0.179-0.063-0.274s0.031-0.188 0.080-0.269c0.013 0.020 0.030 0.038 0.051 0.051s0.043 0.022 0.067 0.025c0.024 0.003 0.048 0.002 0.072-0.005s0.045-0.018 0.063-0.034c0.018-0.016 0.033-0.035 0.043-0.057s0.015-0.046 0.016-0.070c0-0.024-0.005-0.048-0.015-0.070s-0.025-0.042-0.043-0.058c0.068-0.029 0.142-0.044 0.216-0.042zM15.281 9.488c-0.066-0.001-0.132 0.011-0.194 0.034 0.020 0.016 0.037 0.036 0.048 0.059s0.017 0.049 0.017 0.075c-0 0.026-0.006 0.051-0.017 0.074s-0.028 0.043-0.048 0.059c-0.020 0.016-0.044 0.027-0.069 0.032s-0.051 0.005-0.076-0.002c-0.025-0.006-0.048-0.018-0.068-0.035s-0.035-0.038-0.046-0.061c-0.064 0.093-0.098 0.203-0.097 0.316 0 0.095 0.032 0.18 0.064 0.254h0.974c0.042-0.074 0.064-0.159 0.064-0.254 0-0.307-0.244-0.551-0.551-0.551zM12.931 13.522c-0.572 0-1.112-0.138-1.567-0.371-0.159-0.085-0.318 0.095-0.222 0.244 0.381 0.582 1.038 0.974 1.789 0.974s1.408-0.392 1.789-0.974c0.095-0.148-0.074-0.318-0.222-0.244-0.466 0.233-0.995 0.371-1.567 0.371zM12.031 11.765l0.561-1.811c0.127-0.392 0.688-0.392 0.805 0l0.561 1.811c0.116 0.371-0.159 0.741-0.551 0.741h-0.826c-0.392 0-0.667-0.371-0.551-0.741z"></path>
         <path d="M7.192 0.118c-2.735 0-4.093 3.301-2.167 5.227l0.494 0.495v0.652c0 0.341 0.119 0.655 0.318 0.902 0.004 0.063 0.008 0.124 0.014 0.184l0.039 0.597c-0.287 0.264-0.515 0.585-0.672 0.942s-0.237 0.743-0.236 1.133c0 0.699 0.254 1.34 0.674 1.833v0.592c0 0.904 0.361 1.742 0.964 2.354 0.090 0.247 0.196 0.484 0.32 0.711l-0.958 0.703c-0.391 0.255-0.777 0.542-1.134 0.836h-0.001c-1.443 1.189-2.606 2.683-3.403 4.375s-1.21 3.539-1.208 5.409v3.759c0 0.281 0.112 0.55 0.31 0.749s0.468 0.31 0.749 0.31h23.294c0.548 0 1.048-0.229 1.408-0.558 0.362-0.331 0.656-0.836 0.656-1.443v-5.284c0-1.078-0.81-1.969-1.853-2.101v-1.199l0.001-0.002 0.001-0.002c0.007-0.013 0.017-0.025 0.029-0.034 0.463-0.325 0.821-0.77 1.052-1.291 0.3-0.664 0.456-1.385 0.458-2.114s-0.151-1.45-0.447-2.116c-0.251-0.56-0.659-1.036-1.174-1.369s-1.116-0.51-1.73-0.509c-0.613-0.001-1.214 0.175-1.729 0.508s-0.923 0.807-1.174 1.366c-0.102 0.225-0.187 0.457-0.256 0.695l-0.123-0.079-0.696-0.504c0.208-0.36 0.37-0.744 0.488-1.153 0.437-0.582 0.673-1.29 0.673-2.018v-0.517c0.478-0.521 0.742-1.202 0.741-1.908 0-0.781-0.318-1.488-0.828-1.999l0.040-0.661c0.017-0.15 0.029-0.302 0.037-0.454 0.097-0.196 0.154-0.42 0.147-0.663v-0.624l0.505-0.505c1.926-1.926 0.566-5.227-2.167-5.227h-11.456zM19.319 3.848l-0.72 0.72c-0.126 0.099-0.229 0.226-0.299 0.37s-0.107 0.303-0.107 0.463v0.54h-10.556v-0.54c-0-0.281-0.112-0.55-0.31-0.749l-0.805-0.805c-0.594-0.594-0.174-1.613 0.67-1.613h11.456c0.844 0 1.264 1.019 0.67 1.613zM11.978 16.498c-0.722 0.001-1.428-0.212-2.031-0.61s-1.074-0.966-1.355-1.63l-0.039-0.122c-0.019-0.063-0.043-0.124-0.073-0.182-0.064-0.199-0.11-0.404-0.138-0.611l-0.303-4.579c0.003-0.049 0.003-0.098 0-0.146l-0.077-1.188-0.002-0.024c-0.012-0.135-0.020-0.269-0.023-0.404h10.102c-0.006 0.068-0.013 0.137-0.021 0.205l-0.003 0.018-0.382 6.12c-0.124 0.876-0.56 1.677-1.228 2.257s-1.523 0.898-2.408 0.897h-2.018zM6.777 18.465c-0.202 0.145-0.396 0.294-0.583 0.448-1.203 0.991-2.171 2.236-2.835 3.645s-1.007 2.949-1.006 4.507v2.7h17.49c0.022-0.191 0.081-0.377 0.174-0.545-0.126-0.219-0.193-0.468-0.193-0.721s0.065-0.502 0.191-0.721c-0.126-0.221-0.192-0.471-0.191-0.726s0.069-0.504 0.198-0.724c-0.131-0.232-0.195-0.495-0.186-0.76 0.017-0.683 0.53-1.269 1.203-1.342 0.046-0.013 0.094-0.019 0.142-0.019h0.519v-2.983c-0.001-0.088-0.023-0.174-0.064-0.251s-0.101-0.143-0.174-0.192l-0.006-0.005-0.007-0.004c-0.377-0.274-0.678-0.64-0.875-1.062-0.033-0.072-0.065-0.145-0.094-0.219-0.171-0.043-0.328-0.127-0.457-0.246-0.306-0.278-0.627-0.539-0.964-0.779h-4.555c0.365 0.255 0.663 0.593 0.869 0.988s0.313 0.833 0.314 1.278v1.768c-0.732 0-1.434-0.29-1.952-0.807s-0.81-1.218-0.812-1.95c-0.002 0.732-0.294 1.433-0.812 1.95s-1.22 0.807-1.952 0.807v-1.768c0-0.937 0.468-1.766 1.183-2.266h-4.563zM24.535 26.154v-0.889h-3.245c-0.037 0.008-0.074 0.012-0.111 0.012-0.127 0-0.282 0.122-0.286 0.318v0.005c-0.002 0.060 0.009 0.12 0.034 0.175s0.062 0.103 0.108 0.142c0.066 0.050 0.119 0.115 0.155 0.19s0.054 0.157 0.053 0.239c-0.001 0.083-0.022 0.164-0.061 0.237s-0.094 0.136-0.161 0.185c-0.043 0.034-0.078 0.078-0.102 0.127s-0.036 0.104-0.035 0.16c0 0.143 0.064 0.238 0.127 0.282 0.070 0.048 0.128 0.112 0.169 0.187s0.062 0.159 0.063 0.244c0.001 0.085-0.018 0.169-0.057 0.246s-0.095 0.142-0.164 0.191c-0.044 0.034-0.079 0.078-0.103 0.128s-0.036 0.105-0.035 0.161c0 0.142 0.064 0.237 0.127 0.281 0.070 0.048 0.128 0.111 0.168 0.186s0.062 0.158 0.064 0.242c0.002 0.085-0.017 0.169-0.055 0.245s-0.093 0.142-0.161 0.192c-0.043 0.033-0.077 0.076-0.099 0.126h3.608v-3.611zM22.989 16.159c-0.429 0-0.809 0.25-0.977 0.628-0.148 0.332-0.224 0.692-0.224 1.056s0.076 0.723 0.224 1.055c0.168 0.379 0.548 0.629 0.977 0.629s0.809-0.25 0.977-0.628c0.299-0.667 0.299-1.441 0.002-2.107-0.087-0.187-0.225-0.346-0.398-0.458s-0.375-0.172-0.581-0.174z"></path>
      </symbol>
      <symbol id="icon-beans" viewBox="0 0 32 32">
         <path d="M13.871 20.775c-0.062 0.016-0.12 0.045-0.171 0.084s-0.094 0.087-0.126 0.143c-0.032 0.055-0.053 0.117-0.062 0.18s-0.004 0.128 0.012 0.19c0.132 0.478 0.102 0.987-0.084 1.446s-0.519 0.845-0.946 1.097c-0.092 0.053-0.163 0.135-0.201 0.234-0.037 0.095-0.044 0.199-0.020 0.297s0.079 0.187 0.156 0.254c0.077 0.066 0.173 0.107 0.274 0.116s0.203-0.013 0.291-0.064c0.608-0.361 1.082-0.911 1.347-1.567 0.268-0.656 0.312-1.381 0.125-2.065-0.034-0.124-0.115-0.23-0.227-0.294-0.055-0.033-0.116-0.055-0.18-0.063s-0.127-0.004-0.189 0.012z"></path>
         <path d="M10.41 31.276c0.898 0.451 1.902 0.646 2.903 0.563 1.318-0.102 2.582-0.569 3.648-1.351s1.893-1.845 2.387-3.071l1.969-4.859c0.5-1.222 0.648-2.559 0.428-3.861s-0.799-2.516-1.673-3.506c-0.61-0.699-1.389-1.231-2.261-1.546s-1.812-0.402-2.728-0.254c-0.902 0.138-1.754 0.503-2.476 1.061s-1.291 1.29-1.653 2.127l-0.056 0.124c-0.478 1.167-0.558 2.459-0.23 3.676 0.062 0.222 0.048 0.459-0.038 0.673s-0.241 0.394-0.44 0.511c-1.079 0.636-1.918 1.612-2.387 2.774l-0.055 0.133c-0.328 0.855-0.434 1.779-0.306 2.686s0.485 1.766 1.036 2.496c0.508 0.684 1.17 1.24 1.931 1.623zM12.587 21.844c0.261-0.641 0.305-1.349 0.127-2.017l-0.014 0.003c-0.206-0.758-0.161-1.562 0.127-2.292l0.051-0.106c0.216-0.515 0.562-0.965 1.003-1.308s0.964-0.564 1.517-0.645c0.563-0.092 1.141-0.039 1.678 0.154s1.016 0.52 1.392 0.95c0.614 0.696 1.021 1.549 1.176 2.465s0.050 1.855-0.302 2.714l-1.969 4.858c-0.347 0.861-0.927 1.608-1.675 2.157s-1.635 0.878-2.56 0.951c-0.568 0.046-1.138-0.054-1.656-0.289s-0.969-0.599-1.308-1.056c-0.335-0.432-0.555-0.942-0.638-1.483s-0.027-1.093 0.162-1.606l0.058-0.14c0.296-0.742 0.83-1.366 1.518-1.774 0.593-0.357 1.052-0.896 1.313-1.537zM25.611 7.678c-0.031-0.069-0.079-0.13-0.139-0.177s-0.13-0.079-0.204-0.094c-0.126-0.025-0.257 0.001-0.365 0.071-0.054 0.035-0.1 0.080-0.136 0.133s-0.061 0.112-0.075 0.175c-0.148 0.702-0.064 1.41 0.237 2.054 0.299 0.642 0.803 1.167 1.432 1.493 0.114 0.060 0.248 0.073 0.371 0.034s0.227-0.124 0.287-0.238c0.060-0.114 0.073-0.248 0.034-0.371s-0.124-0.227-0.238-0.287c-0.44-0.229-0.792-0.596-1.003-1.045s-0.268-0.955-0.163-1.44c0.018-0.104 0.005-0.212-0.038-0.308z"></path>
         <path d="M26.491 18.475h0.134c0.905 0.002 1.796-0.221 2.593-0.649s1.476-1.047 1.975-1.802c0.51-0.759 0.819-1.636 0.897-2.548s-0.078-1.828-0.452-2.663l-0.051-0.106c-0.531-1.142-1.424-2.077-2.541-2.66-0.205-0.107-0.369-0.279-0.468-0.488s-0.126-0.445-0.077-0.672c0.261-1.233 0.11-2.518-0.431-3.657l-0.053-0.106c-0.406-0.821-1.014-1.525-1.767-2.046s-1.626-0.841-2.538-0.931c-0.922-0.098-1.854 0.041-2.708 0.402s-1.602 0.935-2.173 1.666c-0.819 1.037-1.331 2.283-1.48 3.596s0.072 2.642 0.638 3.836l2.235 4.744c0.559 1.197 1.443 2.214 2.55 2.936s2.395 1.119 3.716 1.148zM21.672 2.573c0.459-0.222 0.962-0.337 1.472-0.338 0.626-0.002 1.239 0.173 1.77 0.504s0.957 0.805 1.231 1.368l0.012 0.025c0.343 0.721 0.44 1.535 0.275 2.317-0.146 0.677-0.066 1.384 0.229 2.011s0.788 1.139 1.404 1.458c0.729 0.385 1.307 1.003 1.643 1.756 0.232 0.508 0.329 1.068 0.281 1.624s-0.239 1.091-0.554 1.552c-0.316 0.474-0.747 0.86-1.252 1.123s-1.069 0.395-1.638 0.382c-0.928-0.020-1.833-0.299-2.611-0.806s-1.399-1.221-1.792-2.063l-2.234-4.742c-0.398-0.839-0.553-1.772-0.449-2.695s0.464-1.798 1.039-2.527c0.314-0.402 0.716-0.726 1.175-0.95zM9.016 6.488c0.054-0.053 0.119-0.093 0.191-0.117s0.148-0.031 0.222-0.022c0.129 0.017 0.245 0.085 0.316 0.193 0.078 0.103 0.112 0.232 0.095 0.36-0.095 0.701-0.418 1.351-0.919 1.851-0.5 0.501-1.15 0.824-1.851 0.919-0.065 0.011-0.131 0.009-0.194-0.006s-0.124-0.043-0.176-0.082c-0.053-0.039-0.097-0.088-0.131-0.144s-0.055-0.119-0.064-0.183c-0.009-0.065-0.005-0.131 0.012-0.194s0.047-0.122 0.087-0.174c0.040-0.051 0.091-0.094 0.148-0.126s0.12-0.051 0.185-0.058c0.492-0.065 0.948-0.29 1.299-0.641s0.576-0.807 0.641-1.299c0.016-0.105 0.064-0.202 0.139-0.277z"></path>
         <path d="M4.114 16.649c1.253 0.421 2.6 0.483 3.887 0.178s2.462-0.965 3.393-1.905l3.706-3.706c0.938-0.931 1.597-2.107 1.902-3.393s0.244-2.632-0.176-3.886c-0.292-0.882-0.803-1.675-1.486-2.305s-1.515-1.075-2.417-1.295c-0.891-0.223-1.824-0.215-2.711 0.023s-1.699 0.697-2.36 1.335l-0.095 0.098c-0.877 0.885-1.444 2.032-1.615 3.266-0.031 0.229-0.136 0.441-0.299 0.604s-0.375 0.269-0.604 0.301c-1.246 0.169-2.401 0.743-3.288 1.635l-0.091 0.094c-0.635 0.659-1.092 1.47-1.327 2.354s-0.241 1.815-0.017 2.703c0.22 0.902 0.665 1.733 1.295 2.415s1.422 1.192 2.304 1.482zM8.239 5.357c0.11-0.793 0.476-1.527 1.043-2.092l0.053-0.056c0.4-0.389 0.894-0.668 1.434-0.811s1.107-0.144 1.647-0.004c0.554 0.136 1.065 0.411 1.484 0.799s0.733 0.875 0.911 1.418c0.295 0.88 0.338 1.826 0.123 2.729s-0.677 1.729-1.336 2.383l-3.706 3.706c-0.654 0.658-1.479 1.121-2.383 1.335s-1.848 0.171-2.728-0.124c-0.542-0.178-1.029-0.492-1.416-0.911s-0.661-0.93-0.796-1.484c-0.14-0.554-0.134-1.135 0.019-1.686s0.447-1.052 0.853-1.454c0.561-0.569 1.296-0.936 2.089-1.041 0.686-0.092 1.322-0.407 1.811-0.896s0.804-1.126 0.896-1.811z"></path>
      </symbol>
      <symbol id="icon-cross" viewBox="0 0 32 32">
         <path d="M31.22 20.5h-10.55v10.792h-9.822v-10.792h-10.55v-9.277h10.55v-10.853h9.822v10.853h10.55v9.277z"></path>
      </symbol>
      <symbol id="icon-facebook" viewBox="0 0 17 32">
         <path d="M11.23 31.118v-13.89h4.897l0.733-5.413h-5.63v-3.456c0-1.567 0.457-2.635 2.818-2.635l3.011-0.001v-4.841c-0.521-0.066-2.308-0.213-4.387-0.213-4.341 0-7.313 2.523-7.313 7.155v3.992h-4.909v5.413h4.909v13.89l5.872 0z"></path>
      </symbol>
      <symbol id="icon-food-bank" viewBox="0 0 32 32">
         <path d="M16.223 7.333l8 6v12h-16v-12l8-6zM16.223 4l-10.667 8v16h21.333v-16l-10.667-8zM15.556 12.667v4h-0.667v-4h-1.333v4h-0.667v-4h-1.333v4c0 1.107 0.893 2 2 2v5.333h1.333v-5.333c1.107 0 2-0.893 2-2v-4h-1.333zM17.556 15.333v4h1.333v4.667h1.333v-11.333c-1.467 0-2.667 1.2-2.667 2.667z"></path>
      </symbol>
      <symbol id="icon-linkedIn" viewBox="0 0 33 32">
         <path d="M0.316 3.898c0-1.052 0.369-1.919 1.108-2.603s1.699-1.025 2.88-1.025c1.161 0 2.1 0.336 2.817 1.010 0.739 0.694 1.108 1.598 1.108 2.713 0 1.009-0.359 1.851-1.076 2.524-0.739 0.694-1.709 1.041-2.912 1.041h-0.032c-1.161 0-2.1-0.347-2.817-1.041s-1.076-1.567-1.076-2.618zM0.728 31.501v-21.073h7.027v21.073h-7.027zM11.648 31.501h7.027v-11.767c0-0.736 0.084-1.304 0.253-1.703 0.296-0.715 0.744-1.32 1.345-1.814s1.356-0.741 2.263-0.741c2.363 0 3.545 1.588 3.545 4.763v11.262h7.027v-12.082c0-3.113-0.739-5.473-2.216-7.082s-3.429-2.413-5.856-2.413c-2.722 0-4.843 1.167-6.362 3.502v0.063h-0.032l0.032-0.063v-2.997h-7.027c0.042 0.673 0.063 2.765 0.063 6.278s-0.021 8.444-0.063 14.795z"></path>
      </symbol>
      <symbol id="icon-quote" viewBox="0 0 33 32">
         <path d="M11.013 14.711c-0.658 0.002-1.303 0.174-1.876 0.498 0.806-2.085 2.141-3.923 3.876-5.333 0.099-0.082 0.181-0.182 0.242-0.296s0.098-0.238 0.11-0.366c0.012-0.128-0.001-0.257-0.038-0.38s-0.099-0.237-0.181-0.336c-0.082-0.099-0.182-0.181-0.296-0.242s-0.238-0.098-0.366-0.11c-0.128-0.012-0.257 0.001-0.38 0.038s-0.237 0.099-0.336 0.181c-3.556 2.889-5.138 6.889-5.138 9.369 0.006 0.877 0.267 1.733 0.752 2.464s1.172 1.305 1.977 1.652c0.521 0.253 1.092 0.386 1.671 0.391 0.51 0.025 1.019-0.054 1.497-0.232s0.915-0.451 1.285-0.803 0.664-0.775 0.865-1.244c0.201-0.469 0.305-0.974 0.305-1.484s-0.104-1.015-0.305-1.484c-0.201-0.469-0.495-0.892-0.865-1.244s-0.807-0.625-1.285-0.803c-0.478-0.178-0.988-0.257-1.497-0.232h-0.018z"></path>
         <path d="M20.915 14.711c-0.658 0.001-1.304 0.173-1.876 0.498 0.805-2.083 2.138-3.921 3.867-5.333 0.108-0.078 0.199-0.177 0.268-0.292s0.113-0.242 0.13-0.374c0.017-0.132 0.007-0.267-0.029-0.395s-0.099-0.248-0.183-0.351c-0.084-0.103-0.189-0.188-0.308-0.249s-0.248-0.098-0.381-0.107c-0.133-0.009-0.267 0.009-0.392 0.053s-0.241 0.114-0.339 0.204c-3.556 2.889-5.138 6.889-5.138 9.369 0.004 0.867 0.258 1.714 0.731 2.441s1.145 1.302 1.936 1.657c0.534 0.26 1.121 0.394 1.716 0.391 0.51 0.025 1.019-0.054 1.498-0.232s0.915-0.451 1.285-0.803c0.37-0.352 0.664-0.775 0.865-1.244s0.305-0.974 0.305-1.484-0.104-1.015-0.305-1.484c-0.201-0.469-0.495-0.892-0.865-1.244s-0.807-0.625-1.285-0.803c-0.478-0.178-0.988-0.257-1.498-0.232v0.018z"></path>
      </symbol>
      <symbol id="icon-star-active" viewBox="0 0 34 32">
         <path d="M17.014 25.547l9.815 5.924-2.605-11.165 8.672-7.512-11.419-0.969-4.463-10.53-4.463 10.53-11.419 0.969 8.672 7.512-2.605 11.165 9.815-5.924z"></path>
      </symbol>
      <symbol id="icon-star-inactive" viewBox="0 0 34 32">
         <path d="M32.191 12.793l-11.419-0.985-4.463-10.514-4.463 10.53-11.419 0.969 8.672 7.512-2.605 11.165 9.815-5.924 9.815 5.924-2.589-11.165 8.656-7.512zM16.308 22.576l-5.972 3.605 1.588-6.798-5.273-4.574 6.956-0.604 2.7-6.401 2.716 6.417 6.956 0.604-5.273 4.574 1.588 6.798-5.988-3.621z"></path>
      </symbol>
      <symbol id="icon-twitter" viewBox="0 0 39 32">
         <path d="M26.27 0.207v-0.007h1.817l0.664 0.133c0.443 0.086 0.845 0.199 1.206 0.339s0.711 0.302 1.048 0.489 0.644 0.376 0.919 0.569c0.273 0.191 0.517 0.393 0.734 0.607 0.214 0.216 0.549 0.272 1.003 0.167s0.944-0.25 1.468-0.436c0.524-0.186 1.043-0.395 1.555-0.628s0.825-0.38 0.937-0.443c0.11-0.065 0.168-0.1 0.175-0.105l0.007-0.010 0.035-0.017 0.035-0.017 0.070-0.035 0.007-0.010 0.010-0.007 0.011-0.007 0.007-0.010 0.035-0.010 0.035-0.007-0.007 0.052-0.010 0.052-0.035 0.105-0.018 0.035-0.017 0.035-0.017 0.052c-0.012 0.035-0.023 0.081-0.035 0.14s-0.122 0.291-0.332 0.698c-0.21 0.407-0.472 0.82-0.786 1.239s-0.596 0.735-0.846 0.949c-0.252 0.216-0.418 0.368-0.5 0.454-0.081 0.088-0.181 0.17-0.297 0.244l-0.175 0.115-0.035 0.017-0.035 0.017-0.007 0.010-0.021 0.014-0.007 0.010-0.035 0.017-0.035 0.017-0.007 0.010-0.011 0.007-0.010 0.007-0.014 0.021-0.021 0.014-0.007 0.010h0.175l0.978-0.209c0.652-0.14 1.276-0.308 1.87-0.506l1.101-0.366 0.14-0.070 0.070-0.010 0.070-0.007v0.070l-0.017 0.007-0.017 0.010-0.007 0.010-0.011 0.007-0.010 0.007-0.007 0.010-0.007 0.010-0.011 0.007-0.010 0.007-0.014 0.021-0.010 0.007-0.035 0.070-0.010 0.007c-0.005 0.007-0.153 0.205-0.444 0.593-0.291 0.391-0.448 0.589-0.472 0.593-0.023 0.007-0.056 0.042-0.098 0.105-0.040 0.065-0.287 0.325-0.741 0.778s-0.899 0.857-1.335 1.211c-0.438 0.356-0.659 0.793-0.664 1.312-0.007 0.516-0.034 1.1-0.080 1.752s-0.134 1.355-0.262 2.111c-0.128 0.756-0.326 1.611-0.594 2.565s-0.594 1.885-0.978 2.792c-0.384 0.907-0.786 1.722-1.206 2.443s-0.804 1.332-1.153 1.832c-0.349 0.5-0.705 0.971-1.066 1.413s-0.818 0.94-1.37 1.494c-0.554 0.551-0.857 0.854-0.909 0.907-0.054 0.051-0.282 0.242-0.685 0.572-0.401 0.333-0.832 0.665-1.293 0.998-0.459 0.33-0.881 0.606-1.265 0.827s-0.848 0.473-1.391 0.757c-0.541 0.286-1.125 0.551-1.754 0.796s-1.293 0.471-1.992 0.681c-0.699 0.209-1.375 0.372-2.027 0.489s-1.392 0.215-2.219 0.297l-1.241 0.122v0.017h-2.271v-0.017l-0.297-0.017c-0.198-0.012-0.361-0.023-0.489-0.035s-0.612-0.076-1.45-0.192c-0.839-0.116-1.497-0.233-1.974-0.349s-1.188-0.337-2.132-0.663-1.751-0.655-2.422-0.988c-0.669-0.33-1.088-0.54-1.258-0.628-0.168-0.086-0.356-0.193-0.566-0.321l-0.315-0.192-0.007-0.010-0.011-0.007-0.010-0.007-0.007-0.010-0.070-0.035-0.007-0.010-0.011-0.007-0.010-0.007-0.007-0.010-0.007-0.010-0.011-0.007h-0.017v-0.070l0.035 0.007 0.035 0.010 0.157 0.017c0.105 0.012 0.39 0.029 0.856 0.052s0.961 0.023 1.485 0c0.524-0.023 1.060-0.076 1.608-0.157s1.194-0.221 1.939-0.419c0.746-0.198 1.43-0.433 2.055-0.705 0.622-0.275 1.065-0.479 1.328-0.614 0.261-0.133 0.659-0.379 1.195-0.74l0.804-0.541 0.007-0.010 0.021-0.014 0.007-0.010 0.007-0.010 0.021-0.014 0.007-0.010 0.035-0.010 0.035-0.007 0.007-0.035 0.010-0.035 0.011-0.007 0.007-0.010-0.28-0.017c-0.186-0.012-0.367-0.023-0.542-0.035s-0.448-0.064-0.821-0.157-0.775-0.233-1.206-0.419c-0.431-0.186-0.85-0.407-1.258-0.663s-0.702-0.469-0.884-0.639c-0.179-0.168-0.412-0.405-0.699-0.712-0.284-0.309-0.531-0.627-0.741-0.953s-0.41-0.701-0.601-1.127l-0.29-0.635-0.017-0.052-0.017-0.052-0.011-0.035-0.007-0.035 0.052 0.007 0.052 0.010 0.384 0.052c0.256 0.035 0.658 0.047 1.206 0.035s0.926-0.035 1.136-0.070 0.338-0.058 0.384-0.070l0.070-0.017 0.175-0.035 0.007-0.010 0.010-0.007 0.011-0.007 0.007-0.010-0.349-0.087c-0.047-0.012-0.128-0.035-0.245-0.070s-0.431-0.163-0.944-0.384c-0.513-0.221-0.92-0.436-1.223-0.646s-0.593-0.44-0.867-0.688c-0.273-0.251-0.572-0.575-0.898-0.97s-0.617-0.855-0.874-1.378c-0.256-0.524-0.448-1.024-0.577-1.501-0.128-0.474-0.212-0.959-0.252-1.448l-0.063-0.733 0.035 0.007 0.035 0.010 0.14 0.070 0.542 0.244c0.361 0.163 0.81 0.302 1.345 0.419s0.856 0.18 0.961 0.192l0.157 0.017h0.315l-0.007-0.010-0.011-0.007-0.010-0.007-0.007-0.010-0.007-0.010-0.021-0.014-0.007-0.010-0.070-0.035-0.007-0.010-0.011-0.007-0.010-0.007-0.007-0.010-0.070-0.035-0.007-0.010c-0.007-0.005-0.107-0.079-0.301-0.223-0.191-0.147-0.391-0.336-0.601-0.569s-0.419-0.477-0.629-0.733c-0.21-0.257-0.397-0.531-0.559-0.82-0.163-0.291-0.335-0.661-0.517-1.11-0.179-0.447-0.316-0.897-0.409-1.351s-0.146-0.902-0.157-1.344 0-0.82 0.035-1.134c0.035-0.314 0.105-0.669 0.21-1.064s0.256-0.814 0.454-1.256l0.297-0.663 0.035-0.105 0.011-0.007 0.007-0.010 0.007-0.010 0.010-0.007 0.011 0.007 0.007 0.010 0.007 0.010 0.010 0.007 0.011 0.007 0.007 0.010 0.007 0.010 0.010 0.007 0.035 0.070 0.011 0.007 0.007 0.010 0.472 0.523c0.315 0.349 0.687 0.739 1.118 1.169s0.67 0.654 0.716 0.67c0.047 0.019 0.105 0.072 0.175 0.161 0.070 0.086 0.303 0.292 0.699 0.618s0.914 0.704 1.555 1.134c0.641 0.43 1.351 0.855 2.132 1.274s1.619 0.797 2.516 1.134c0.897 0.337 1.526 0.558 1.887 0.663s0.978 0.238 1.852 0.401c0.874 0.163 1.532 0.268 1.975 0.314s0.745 0.073 0.909 0.080l0.245 0.007-0.007-0.052-0.010-0.052-0.070-0.436c-0.047-0.291-0.070-0.698-0.070-1.221s0.041-1.006 0.122-1.448c0.082-0.442 0.204-0.89 0.367-1.344s0.323-0.818 0.479-1.092c0.158-0.272 0.366-0.583 0.622-0.932s0.588-0.71 0.996-1.082 0.874-0.704 1.398-0.995c0.524-0.291 1.008-0.512 1.45-0.663s0.815-0.25 1.118-0.297c0.303-0.047 0.454-0.073 0.454-0.080z"></path>
      </symbol>
      <symbol id="icon-instagram1" viewBox="0 0 32 32">
         <path d="M31.969 9.408c-0.075-1.7-0.35-2.869-0.744-3.882-0.406-1.075-1.031-2.038-1.851-2.838-0.8-0.813-1.769-1.444-2.832-1.844-1.019-0.394-2.181-0.669-3.882-0.744-1.713-0.081-2.257-0.1-6.601-0.1s-4.888 0.019-6.595 0.094c-1.7 0.075-2.869 0.35-3.882 0.744-1.075 0.406-2.038 1.031-2.838 1.85-0.813 0.8-1.444 1.769-1.844 2.832-0.394 1.019-0.669 2.182-0.744 3.882-0.081 1.713-0.1 2.257-0.1 6.601s0.019 4.888 0.094 6.595c0.075 1.7 0.35 2.869 0.744 3.882 0.406 1.075 1.038 2.038 1.85 2.838 0.8 0.813 1.769 1.444 2.832 1.844 1.019 0.394 2.182 0.669 3.882 0.744 1.706 0.075 2.25 0.094 6.595 0.094s4.888-0.018 6.595-0.094c1.7-0.075 2.869-0.35 3.882-0.744 2.151-0.831 3.851-2.532 4.682-4.682 0.394-1.019 0.669-2.182 0.744-3.882 0.075-1.707 0.094-2.25 0.094-6.595s-0.006-4.888-0.081-6.595zM29.087 22.473c-0.069 1.563-0.331 2.407-0.55 2.969-0.538 1.394-1.644 2.5-3.038 3.038-0.563 0.219-1.413 0.481-2.969 0.55-1.688 0.075-2.194 0.094-6.464 0.094s-4.782-0.018-6.464-0.094c-1.563-0.069-2.407-0.331-2.969-0.55-0.694-0.257-1.325-0.663-1.838-1.194-0.531-0.519-0.938-1.144-1.194-1.838-0.219-0.563-0.481-1.413-0.55-2.969-0.075-1.688-0.094-2.194-0.094-6.464s0.019-4.782 0.094-6.464c0.069-1.563 0.331-2.407 0.55-2.969 0.256-0.694 0.663-1.325 1.2-1.838 0.519-0.531 1.144-0.938 1.838-1.194 0.563-0.219 1.413-0.481 2.969-0.55 1.688-0.075 2.194-0.094 6.464-0.094 4.276 0 4.782 0.019 6.464 0.094 1.563 0.069 2.407 0.331 2.969 0.55 0.694 0.256 1.325 0.662 1.838 1.194 0.531 0.519 0.938 1.144 1.194 1.838 0.219 0.563 0.481 1.413 0.55 2.969 0.075 1.688 0.094 2.194 0.094 6.464s-0.019 4.77-0.094 6.457z"></path>
         <path d="M16.059 7.783c-4.538 0-8.22 3.682-8.22 8.22s3.682 8.22 8.22 8.22c4.538 0 8.22-3.682 8.22-8.22s-3.682-8.22-8.22-8.22zM16.059 21.336c-2.944 0-5.332-2.388-5.332-5.332s2.388-5.332 5.332-5.332c2.944 0 5.332 2.388 5.332 5.332s-2.388 5.332-5.332 5.332z"></path>
         <path d="M26.524 7.458c0 1.060-0.859 1.919-1.919 1.919s-1.919-0.859-1.919-1.919c0-1.060 0.859-1.919 1.919-1.919s1.919 0.859 1.919 1.919z"></path>
      </symbol>
   </defs>
</svg>
