<svg width="189" height="50" viewBox="0 0 189 50" fill="none" xmlns="http://www.w3.org/2000/svg">
<path d="M28.4163 38.8C26.783 40.3833 24.9996 40.1333 23.283 39.3833C21.4663 38.6167 19.7996 38.5833 17.883 39.3833C15.483 40.4167 14.2163 40.1167 12.783 38.8C4.64962 30.4167 5.84962 17.65 15.083 17.1833C17.333 17.3 18.8996 18.4167 20.2163 18.5167C22.183 18.1167 24.0663 16.9667 26.1663 17.1167C28.683 17.3167 30.583 18.3167 31.833 20.1167C26.633 23.2333 27.8663 30.0833 32.633 32C31.683 34.5 30.4496 36.9833 28.3996 38.8167L28.4163 38.8ZM20.0496 17.0833C19.7996 13.3667 22.8163 10.3 26.283 10C26.7663 14.3 22.383 17.5 20.0496 17.0833Z" fill="black"/>
<path d="M49.78 6.05C49.6 5.70333 49.35 5.44333 49.03 5.27C48.71 5.09 48.34 5 47.92 5C47.46 5 47.05 5.10333 46.69 5.31C46.33 5.51667 46.0467 5.81 45.84 6.19C45.64 6.57 45.54 7.01 45.54 7.51C45.54 8.01 45.64 8.45333 45.84 8.84C46.0467 9.22 46.33 9.51333 46.69 9.72C47.05 9.92667 47.46 10.03 47.92 10.03C48.54 10.03 49.0433 9.85667 49.43 9.51C49.8167 9.16333 50.0533 8.69333 50.14 8.1H47.53V7.19H51.36V8.08C51.2867 8.62 51.0933 9.11667 50.78 9.57C50.4733 10.0233 50.07 10.3867 49.57 10.66C49.0767 10.9267 48.5267 11.06 47.92 11.06C47.2667 11.06 46.67 10.91 46.13 10.61C45.59 10.3033 45.16 9.88 44.84 9.34C44.5267 8.8 44.37 8.19 44.37 7.51C44.37 6.83 44.5267 6.22 44.84 5.68C45.16 5.14 45.59 4.72 46.13 4.42C46.6767 4.11333 47.2733 3.96 47.92 3.96C48.66 3.96 49.3167 4.14333 49.89 4.51C50.47 4.87 50.89 5.38333 51.15 6.05H49.78ZM53.6244 4.97V7.01H56.0244V7.94H53.6244V10.07H56.3244V11H52.4844V4.04H56.3244V4.97H53.6244ZM62.2185 4.05V4.98H60.3685V11H59.2285V4.98H57.3685V4.05H62.2185ZM67.1107 4.05V11H65.9707V4.05H67.1107ZM73.0974 4.05V4.98H71.2474V11H70.1074V4.98H68.2474V4.05H73.0974ZM77.422 11.07C76.7753 11.07 76.1786 10.92 75.632 10.62C75.092 10.3133 74.662 9.89 74.342 9.35C74.0286 8.80333 73.872 8.19 73.872 7.51C73.872 6.83 74.0286 6.22 74.342 5.68C74.662 5.14 75.092 4.72 75.632 4.42C76.1786 4.11333 76.7753 3.96 77.422 3.96C78.0753 3.96 78.672 4.11333 79.212 4.42C79.7586 4.72 80.1886 5.14 80.502 5.68C80.8153 6.22 80.972 6.83 80.972 7.51C80.972 8.19 80.8153 8.80333 80.502 9.35C80.1886 9.89 79.7586 10.3133 79.212 10.62C78.672 10.92 78.0753 11.07 77.422 11.07ZM77.422 10.08C77.882 10.08 78.292 9.97667 78.652 9.77C79.012 9.55667 79.292 9.25667 79.492 8.87C79.6986 8.47667 79.802 8.02333 79.802 7.51C79.802 6.99667 79.6986 6.54667 79.492 6.16C79.292 5.77333 79.012 5.47667 78.652 5.27C78.292 5.06333 77.882 4.96 77.422 4.96C76.962 4.96 76.552 5.06333 76.192 5.27C75.832 5.47667 75.5486 5.77333 75.342 6.16C75.142 6.54667 75.042 6.99667 75.042 7.51C75.042 8.02333 75.142 8.47667 75.342 8.87C75.5486 9.25667 75.832 9.55667 76.192 9.77C76.552 9.97667 76.962 10.08 77.422 10.08ZM87.8038 11H86.6638L83.2338 5.81V11H82.0938V4.04H83.2338L86.6638 9.22V4.04H87.8038V11Z" fill="#050505"/>
<path d="M55.928 36.808H49.256L48.152 40H44.624L50.648 23.224H54.56L60.584 40H57.032L55.928 36.808ZM55.016 34.12L52.592 27.112L50.168 34.12H55.016ZM66.1957 28.624C66.6277 28.016 67.2197 27.512 67.9717 27.112C68.7397 26.696 69.6117 26.488 70.5877 26.488C71.7237 26.488 72.7477 26.768 73.6597 27.328C74.5877 27.888 75.3157 28.688 75.8437 29.728C76.3877 30.752 76.6597 31.944 76.6597 33.304C76.6597 34.664 76.3877 35.872 75.8437 36.928C75.3157 37.968 74.5877 38.776 73.6597 39.352C72.7477 39.928 71.7237 40.216 70.5877 40.216C69.6117 40.216 68.7477 40.016 67.9957 39.616C67.2597 39.216 66.6597 38.712 66.1957 38.104V46.336H62.8357V26.704H66.1957V28.624ZM73.2277 33.304C73.2277 32.504 73.0597 31.816 72.7237 31.24C72.4037 30.648 71.9717 30.2 71.4277 29.896C70.8997 29.592 70.3237 29.44 69.6997 29.44C69.0917 29.44 68.5157 29.6 67.9717 29.92C67.4437 30.224 67.0117 30.672 66.6757 31.264C66.3557 31.856 66.1957 32.552 66.1957 33.352C66.1957 34.152 66.3557 34.848 66.6757 35.44C67.0117 36.032 67.4437 36.488 67.9717 36.808C68.5157 37.112 69.0917 37.264 69.6997 37.264C70.3237 37.264 70.8997 37.104 71.4277 36.784C71.9717 36.464 72.4037 36.008 72.7237 35.416C73.0597 34.824 73.2277 34.12 73.2277 33.304ZM82.4613 28.624C82.8933 28.016 83.4853 27.512 84.2373 27.112C85.0053 26.696 85.8773 26.488 86.8533 26.488C87.9893 26.488 89.0133 26.768 89.9253 27.328C90.8533 27.888 91.5813 28.688 92.1093 29.728C92.6533 30.752 92.9253 31.944 92.9253 33.304C92.9253 34.664 92.6533 35.872 92.1093 36.928C91.5813 37.968 90.8533 38.776 89.9253 39.352C89.0133 39.928 87.9893 40.216 86.8533 40.216C85.8773 40.216 85.0133 40.016 84.2613 39.616C83.5253 39.216 82.9253 38.712 82.4613 38.104V46.336H79.1013V26.704H82.4613V28.624ZM89.4933 33.304C89.4933 32.504 89.3253 31.816 88.9893 31.24C88.6693 30.648 88.2373 30.2 87.6933 29.896C87.1653 29.592 86.5893 29.44 85.9653 29.44C85.3573 29.44 84.7813 29.6 84.2373 29.92C83.7093 30.224 83.2773 30.672 82.9413 31.264C82.6213 31.856 82.4613 32.552 82.4613 33.352C82.4613 34.152 82.6213 34.848 82.9413 35.44C83.2773 36.032 83.7093 36.488 84.2373 36.808C84.7813 37.112 85.3573 37.264 85.9653 37.264C86.5893 37.264 87.1653 37.104 87.6933 36.784C88.2373 36.464 88.6693 36.008 88.9893 35.416C89.3253 34.824 89.4933 34.12 89.4933 33.304ZM98.7269 22.24V40H95.3669V22.24H98.7269ZM114.407 33.064C114.407 33.544 114.375 33.976 114.311 34.36H104.591C104.671 35.32 105.007 36.072 105.599 36.616C106.191 37.16 106.919 37.432 107.783 37.432C109.031 37.432 109.919 36.896 110.447 35.824H114.071C113.687 37.104 112.951 38.16 111.863 38.992C110.775 39.808 109.439 40.216 107.855 40.216C106.575 40.216 105.423 39.936 104.399 39.376C103.391 38.8 102.599 37.992 102.023 36.952C101.463 35.912 101.183 34.712 101.183 33.352C101.183 31.976 101.463 30.768 102.023 29.728C102.583 28.688 103.367 27.888 104.375 27.328C105.383 26.768 106.543 26.488 107.855 26.488C109.119 26.488 110.247 26.76 111.239 27.304C112.247 27.848 113.023 28.624 113.567 29.632C114.127 30.624 114.407 31.768 114.407 33.064ZM110.927 32.104C110.911 31.24 110.599 30.552 109.991 30.04C109.383 29.512 108.639 29.248 107.759 29.248C106.927 29.248 106.223 29.504 105.647 30.016C105.087 30.512 104.743 31.208 104.615 32.104H110.927ZM128.362 40.168C127.194 40.168 126.138 39.968 125.194 39.568C124.266 39.168 123.53 38.592 122.986 37.84C122.442 37.088 122.162 36.2 122.146 35.176H125.746C125.794 35.864 126.034 36.408 126.466 36.808C126.914 37.208 127.522 37.408 128.29 37.408C129.074 37.408 129.69 37.224 130.138 36.856C130.586 36.472 130.81 35.976 130.81 35.368C130.81 34.872 130.658 34.464 130.354 34.144C130.05 33.824 129.666 33.576 129.202 33.4C128.754 33.208 128.13 33 127.33 32.776C126.242 32.456 125.354 32.144 124.666 31.84C123.994 31.52 123.41 31.048 122.914 30.424C122.434 29.784 122.194 28.936 122.194 27.88C122.194 26.888 122.442 26.024 122.938 25.288C123.434 24.552 124.13 23.992 125.026 23.608C125.922 23.208 126.946 23.008 128.098 23.008C129.826 23.008 131.226 23.432 132.298 24.28C133.386 25.112 133.986 26.28 134.098 27.784H130.402C130.37 27.208 130.122 26.736 129.658 26.368C129.21 25.984 128.61 25.792 127.858 25.792C127.202 25.792 126.674 25.96 126.274 26.296C125.89 26.632 125.698 27.12 125.698 27.76C125.698 28.208 125.842 28.584 126.13 28.888C126.434 29.176 126.802 29.416 127.234 29.608C127.682 29.784 128.306 29.992 129.106 30.232C130.194 30.552 131.082 30.872 131.77 31.192C132.458 31.512 133.05 31.992 133.546 32.632C134.042 33.272 134.29 34.112 134.29 35.152C134.29 36.048 134.058 36.88 133.594 37.648C133.13 38.416 132.45 39.032 131.554 39.496C130.658 39.944 129.594 40.168 128.362 40.168ZM141.115 29.464V35.896C141.115 36.344 141.219 36.672 141.427 36.88C141.651 37.072 142.019 37.168 142.531 37.168H144.091V40H141.979C139.147 40 137.731 38.624 137.731 35.872V29.464H136.147V26.704H137.731V23.416H141.115V26.704H144.091V29.464H141.115ZM152.412 40.216C151.132 40.216 149.98 39.936 148.956 39.376C147.932 38.8 147.124 37.992 146.532 36.952C145.956 35.912 145.668 34.712 145.668 33.352C145.668 31.992 145.964 30.792 146.556 29.752C147.164 28.712 147.988 27.912 149.028 27.352C150.068 26.776 151.228 26.488 152.508 26.488C153.788 26.488 154.948 26.776 155.988 27.352C157.028 27.912 157.844 28.712 158.436 29.752C159.044 30.792 159.348 31.992 159.348 33.352C159.348 34.712 159.036 35.912 158.412 36.952C157.804 37.992 156.972 38.8 155.916 39.376C154.876 39.936 153.708 40.216 152.412 40.216ZM152.412 37.288C153.02 37.288 153.588 37.144 154.116 36.856C154.66 36.552 155.092 36.104 155.412 35.512C155.732 34.92 155.892 34.2 155.892 33.352C155.892 32.088 155.556 31.12 154.884 30.448C154.228 29.76 153.42 29.416 152.46 29.416C151.5 29.416 150.692 29.76 150.036 30.448C149.396 31.12 149.076 32.088 149.076 33.352C149.076 34.616 149.388 35.592 150.012 36.28C150.652 36.952 151.452 37.288 152.412 37.288ZM165.172 28.768C165.604 28.064 166.164 27.512 166.852 27.112C167.556 26.712 168.356 26.512 169.252 26.512V30.04H168.364C167.308 30.04 166.508 30.288 165.964 30.784C165.436 31.28 165.172 32.144 165.172 33.376V40H161.812V26.704H165.172V28.768ZM183.875 33.064C183.875 33.544 183.843 33.976 183.779 34.36H174.059C174.139 35.32 174.475 36.072 175.067 36.616C175.659 37.16 176.387 37.432 177.251 37.432C178.499 37.432 179.387 36.896 179.915 35.824H183.539C183.155 37.104 182.419 38.16 181.331 38.992C180.243 39.808 178.907 40.216 177.323 40.216C176.043 40.216 174.891 39.936 173.867 39.376C172.859 38.8 172.067 37.992 171.491 36.952C170.931 35.912 170.651 34.712 170.651 33.352C170.651 31.976 170.931 30.768 171.491 29.728C172.051 28.688 172.835 27.888 173.843 27.328C174.851 26.768 176.011 26.488 177.323 26.488C178.587 26.488 179.715 26.76 180.707 27.304C181.715 27.848 182.491 28.624 183.035 29.632C183.595 30.624 183.875 31.768 183.875 33.064ZM180.395 32.104C180.379 31.24 180.067 30.552 179.459 30.04C178.851 29.512 178.107 29.248 177.227 29.248C176.395 29.248 175.691 29.504 175.115 30.016C174.555 30.512 174.211 31.208 174.083 32.104H180.395Z" fill="#050505"/>
</svg>
