<svg width="57" height="68" viewBox="0 0 57 68" fill="none" xmlns="http://www.w3.org/2000/svg">
<path d="M26.4203 11.5676V6.16757C26.4203 5.60507 26.8703 5.13257 27.4553 5.13257C28.0178 5.13257 28.4903 5.58257 28.4903 6.16757V11.5676H26.4203ZM21.6278 11.5676H19.5803L17.7803 6.43757C17.5553 5.80757 18.0278 5.15507 18.7028 5.15507C19.1078 5.15507 19.4903 5.42507 19.6253 5.80757L21.6278 11.5676ZM33.2603 11.5676H35.3078L37.1078 6.43757C37.3328 5.80757 36.8603 5.15507 36.1853 5.15507C35.7803 5.15507 35.3978 5.42507 35.2628 5.80757L33.2603 11.5676ZM19.6118 17.7281C19.4834 17.7283 19.3581 17.6883 19.2534 17.6138C19.1488 17.5393 19.07 17.434 19.0281 17.3126C18.9862 17.1911 18.9833 17.0596 19.0198 16.9365C19.0563 16.8133 19.1303 16.7046 19.2316 16.6256C20.4757 15.7547 22.0009 15.3815 23.5066 15.5793C23.6064 15.5913 23.7017 15.6275 23.7843 15.6846C23.867 15.7417 23.9345 15.8181 23.981 15.9071C24.0276 15.9962 24.0517 16.0952 24.0514 16.1957C24.051 16.2962 24.0262 16.3951 23.9791 16.4838C23.9206 16.5904 23.8314 16.677 23.723 16.7324C23.6147 16.7878 23.4923 16.8093 23.3716 16.7943C22.1874 16.6509 20.9909 16.9341 19.9966 17.5931C19.8875 17.679 19.7507 17.7265 19.6118 17.7281ZM35.3303 17.7281C35.1945 17.7293 35.0622 17.6849 34.9546 17.6021C33.9587 16.9467 32.7635 16.6639 31.5796 16.8033C31.498 16.8154 31.4147 16.811 31.3348 16.7904C31.2549 16.7697 31.18 16.7332 31.1145 16.6831C31.049 16.6329 30.9942 16.5701 30.9533 16.4984C30.9125 16.4267 30.8865 16.3475 30.8769 16.2655C30.8672 16.1836 30.8742 16.1005 30.8972 16.0213C30.9203 15.942 30.959 15.8682 31.0111 15.8042C31.0632 15.7402 31.1276 15.6874 31.2005 15.6487C31.2735 15.6101 31.3534 15.5865 31.4356 15.5793C32.9408 15.3902 34.4629 15.7627 35.7106 16.6256C35.812 16.7047 35.8861 16.8136 35.9226 16.937C35.959 17.0604 35.9559 17.1921 35.9137 17.3137C35.8716 17.4352 35.7924 17.5405 35.6874 17.6148C35.5824 17.6891 35.459 17.7287 35.3303 17.7281ZM21.9878 18.6776C20.4803 18.6776 19.2203 19.7126 18.8828 21.1076C18.7703 21.4901 19.0853 21.8726 19.4903 21.8726H20.4803C20.3986 21.5685 20.3879 21.2496 20.449 20.9407C20.5101 20.6318 20.6414 20.341 20.8328 20.0909C21.0241 19.8408 21.2705 19.6381 21.5527 19.4984C21.8349 19.3586 22.1454 19.2857 22.4603 19.2851C22.7753 19.2857 23.0858 19.3586 23.368 19.4984C23.6502 19.6381 23.8965 19.8408 24.0879 20.0909C24.2793 20.341 24.4106 20.6318 24.4717 20.9407C24.5328 21.2496 24.5221 21.5685 24.4403 21.8726H24.5978C24.9353 21.8726 25.1828 21.5801 25.1153 21.2426C24.8453 19.7801 23.5403 18.6776 21.9878 18.6776ZM32.9453 18.6776C34.4528 18.6776 35.7128 19.7126 36.0503 21.1076C36.1403 21.5126 35.8478 21.8951 35.4428 21.8951H34.4528C34.4978 21.7151 34.5203 21.5351 34.5203 21.3551C34.5203 20.2301 33.5978 19.3076 32.4728 19.3076C32.1579 19.3082 31.8474 19.3811 31.5652 19.5209C31.283 19.6606 31.0366 19.8633 30.8453 20.1134C30.6539 20.3635 30.5226 20.6543 30.4615 20.9632C30.4004 21.2721 30.4111 21.591 30.4928 21.8951H30.3353C30.2568 21.897 30.1788 21.8809 30.1074 21.8482C30.036 21.8155 29.9729 21.7669 29.923 21.7062C29.8732 21.6455 29.8378 21.5742 29.8196 21.4978C29.8013 21.4213 29.8007 21.3418 29.8178 21.2651C30.1103 19.7801 31.3928 18.6776 32.9453 18.6776Z" fill="white"/>
<path d="M22.4599 20.1627C22.6617 20.1606 22.8605 20.2112 23.0368 20.3093C23.2131 20.4075 23.3607 20.5499 23.4652 20.7225C23.5697 20.8951 23.6274 21.092 23.6326 21.2937C23.6378 21.4954 23.5904 21.695 23.4949 21.8727H21.4249C21.3306 21.6937 21.2843 21.4932 21.2906 21.2909C21.2969 21.0885 21.3556 20.8913 21.4609 20.7185C21.4889 20.7617 21.5257 20.7985 21.569 20.8263C21.6124 20.8541 21.6612 20.8722 21.7121 20.8796C21.7631 20.8869 21.815 20.8832 21.8644 20.8688C21.9138 20.8543 21.9595 20.8295 21.9985 20.7959C22.0375 20.7622 22.0688 20.7206 22.0904 20.6739C22.1119 20.6271 22.1232 20.5763 22.1234 20.5248C22.1236 20.4734 22.1128 20.4224 22.0917 20.3755C22.0706 20.3286 22.0396 20.2867 22.0009 20.2527C22.1459 20.1909 22.3023 20.1602 22.4599 20.1627ZM32.4724 20.1627C32.3319 20.1608 32.1922 20.1852 32.0607 20.2347C32.104 20.2684 32.139 20.3116 32.1631 20.3609C32.1872 20.4101 32.1997 20.4643 32.1997 20.5192C32.1996 20.574 32.1871 20.6282 32.1629 20.6774C32.1387 20.7267 32.1036 20.7698 32.0603 20.8034C32.0169 20.837 31.9665 20.8603 31.9127 20.8714C31.859 20.8826 31.8035 20.8813 31.7503 20.8676C31.6972 20.854 31.6478 20.8284 31.6061 20.7928C31.5643 20.7572 31.5313 20.7126 31.5094 20.6622C31.3735 20.8593 31.3012 21.0933 31.3024 21.3327C31.3024 21.5352 31.3699 21.7152 31.4374 21.8727H33.5074C33.5974 21.7152 33.6424 21.5352 33.6424 21.3327C33.6424 20.6802 33.1249 20.1627 32.4724 20.1627ZM27.4774 28.7352C26.2624 28.7352 25.1149 28.4427 24.1474 27.9477C23.8099 27.7677 23.4724 28.1502 23.6749 28.4652C24.4849 29.7027 25.8799 30.5352 27.4774 30.5352C29.0749 30.5352 30.4699 29.7027 31.2799 28.4652C31.4824 28.1502 31.1224 27.7902 30.8074 27.9477C29.8174 28.4427 28.6924 28.7352 27.4774 28.7352ZM25.5649 25.0002L26.7574 21.1527C27.0274 20.3202 28.2199 20.3202 28.4674 21.1527L29.6599 25.0002C29.9074 25.7877 29.3224 26.5752 28.4899 26.5752H26.7349C25.9024 26.5752 25.3174 25.7877 25.5649 25.0002Z" fill="white"/>
<path fill-rule="evenodd" clip-rule="evenodd" d="M15.2825 0.25C9.47076 0.25 6.58401 7.2655 10.6768 11.3582L11.7275 12.409V13.795C11.7275 14.5195 11.9795 15.1878 12.4025 15.712C12.41 15.8455 12.4198 15.976 12.4318 16.1035L12.515 17.3725C11.9059 17.9341 11.42 18.616 11.088 19.3751C10.7561 20.1342 10.5854 20.954 10.5868 21.7825C10.5868 23.2675 11.1268 24.631 12.02 25.6772V26.935C12.02 28.8565 12.7873 30.6362 14.0675 31.9368C14.258 32.4618 14.4845 32.9658 14.747 33.4487L12.7108 34.9428C11.8805 35.485 11.0593 36.0947 10.301 36.7202H10.2988C7.23144 39.2474 4.76195 42.4225 3.06772 46.0175C1.37349 49.6126 0.496584 53.5382 0.50001 57.5125V65.5C0.50001 66.0967 0.737063 66.669 1.15902 67.091C1.58098 67.5129 2.15327 67.75 2.75001 67.75H52.25C53.4155 67.75 54.4775 67.264 55.2425 66.5642C56.012 65.86 56.6375 64.7868 56.6375 63.4975V52.27C56.6375 49.9795 54.9163 48.085 52.7 47.806V45.259L52.7023 45.2545L52.7045 45.25C52.7195 45.222 52.7402 45.1974 52.7653 45.178C53.7485 44.4873 54.509 43.5423 55.0018 42.4352C55.6394 41.0234 55.9711 39.4925 55.975 37.9433C55.9789 36.3941 55.6549 34.8616 55.0243 33.4465C54.4912 32.256 53.6246 31.2454 52.5293 30.5371C51.434 29.8287 50.1569 29.4528 48.8525 29.455C47.5495 29.4525 46.2736 29.8272 45.1788 30.5339C44.0841 31.2406 43.2172 32.249 42.683 33.4375C42.4673 33.9162 42.2853 34.4094 42.1385 34.9135L41.8775 34.7447L40.3993 33.6737C40.8403 32.9087 41.186 32.092 41.4365 31.2235C42.3645 29.9862 42.8665 28.4816 42.8675 26.935V25.837C43.8824 24.7309 44.4446 23.2837 44.4425 21.7825C44.4425 20.122 43.7675 18.6213 42.683 17.5345L42.7685 16.1305C42.8045 15.811 42.8308 15.4893 42.8473 15.1653C43.0543 14.749 43.1735 14.272 43.16 13.7567V12.4315L44.2333 11.3582C48.326 7.2655 45.437 0.25 39.6275 0.25H15.2825ZM41.0518 8.17675L39.5218 9.70675C39.2533 9.91726 39.0362 10.1861 38.8869 10.4928C38.7376 10.7996 38.66 11.1363 38.66 11.4775V12.625H16.2275V11.4775C16.2274 10.8808 15.9902 10.3086 15.5683 9.88675L13.8583 8.17675C12.596 6.9145 13.4893 4.75 15.2825 4.75H39.6275C41.4208 4.75 42.314 6.9145 41.0518 8.17675ZM25.4525 35.0575C23.918 35.0589 22.4171 34.608 21.1374 33.7612C19.8576 32.9145 18.8558 31.7094 18.257 30.2965L18.1738 30.0378C18.1341 29.9042 18.0821 29.7747 18.0185 29.6508C17.8835 29.2273 17.7856 28.7929 17.726 28.3525L17.0825 18.6213C17.0897 18.5179 17.0897 18.4141 17.0825 18.3108L16.9183 15.7863L16.9138 15.7345C16.8881 15.4486 16.8716 15.162 16.8643 14.875H38.3315C38.3195 15.0205 38.3045 15.166 38.2865 15.3115L38.2798 15.3497L37.4675 28.3547C37.2039 30.2157 36.2769 31.9187 34.8571 33.1504C33.4374 34.382 31.6205 35.0593 29.741 35.0575H25.4525ZM14.4005 39.238C13.9715 39.5455 13.5583 39.8627 13.1608 40.1898C10.6053 42.295 8.54806 44.9404 7.13701 47.9356C5.72595 50.9308 4.99613 54.2015 5.00001 57.5125V63.25H42.1655C42.2121 62.8434 42.3374 62.4499 42.5345 62.0913C42.2666 61.6252 42.1252 61.0972 42.1245 60.5596C42.1237 60.022 42.2635 59.4936 42.53 59.0267C42.2615 58.557 42.1214 58.0248 42.1238 57.4837C42.1261 56.9426 42.2709 56.4117 42.5435 55.9443C42.266 55.4522 42.129 54.8934 42.1475 54.3288C42.1835 52.8775 43.2748 51.6332 44.7035 51.478C44.8017 51.4509 44.9031 51.4373 45.005 51.4375H46.1075V45.0993C46.1057 44.9132 46.0587 44.7304 45.9705 44.5665C45.8823 44.4027 45.7556 44.2627 45.6013 44.1587L45.5878 44.1475L45.572 44.1385C44.7715 43.5557 44.132 42.7792 43.7135 41.8818C43.6424 41.7284 43.5756 41.5731 43.5133 41.416C43.151 41.3254 42.8169 41.146 42.5413 40.894C41.8917 40.3025 41.208 39.7495 40.4938 39.238H30.8143C31.5899 39.7789 32.2234 40.4992 32.661 41.3375C33.0986 42.1758 33.3272 43.1074 33.3275 44.053V47.8105C31.7724 47.8105 30.2807 47.1936 29.1798 46.0953C28.0789 44.9969 27.4586 43.5066 27.455 41.9515C27.4514 43.5066 26.8312 44.9969 25.7302 46.0953C24.6293 47.1936 23.1377 47.8105 21.5825 47.8105V44.053C21.5825 42.0618 22.577 40.3 24.0958 39.238H14.4005ZM52.1375 55.5775V53.6875H45.2413C45.1636 53.7041 45.0844 53.7124 45.005 53.7122C44.735 53.7122 44.4065 53.971 44.3975 54.3873V54.3985C44.3927 54.5263 44.4174 54.6534 44.4697 54.7701C44.522 54.8867 44.6005 54.9898 44.699 55.0713C44.8387 55.1783 44.9513 55.3166 45.0277 55.4751C45.1042 55.6336 45.1425 55.8078 45.1394 55.9837C45.1364 56.1596 45.0921 56.3324 45.0101 56.4881C44.9281 56.6438 44.8108 56.7781 44.6675 56.8803C44.5753 56.9527 44.5009 57.0453 44.4502 57.151C44.3995 57.2568 44.3738 57.3727 44.375 57.49C44.375 57.7938 44.51 57.9963 44.645 58.0885C44.7948 58.1904 44.9178 58.3269 45.0036 58.4865C45.0893 58.6461 45.1352 58.824 45.1374 59.0051C45.1396 59.1863 45.0981 59.3653 45.0162 59.5269C44.9344 59.6885 44.8148 59.828 44.6675 59.9335C44.5747 60.0064 44.5 60.0998 44.4492 60.2063C44.3985 60.3129 44.3731 60.4297 44.375 60.5477C44.375 60.8493 44.51 61.0517 44.645 61.144C44.7941 61.2451 44.9168 61.3806 45.0026 61.5391C45.0885 61.6975 45.135 61.8742 45.1383 62.0544C45.1416 62.2345 45.1016 62.4129 45.0216 62.5743C44.9417 62.7358 44.8241 62.8757 44.6788 62.9823C44.5873 63.0522 44.5153 63.1444 44.4695 63.25H52.1375V55.5775ZM48.8525 34.3375C47.9413 34.3375 47.1335 34.8685 46.7758 35.6717C46.4619 36.3772 46.2997 37.1429 46.2997 37.915C46.2997 38.6871 46.4619 39.4506 46.7758 40.156C47.1335 40.9615 47.9413 41.4925 48.8525 41.4925C49.7638 41.4925 50.5715 40.9615 50.9293 40.1582C51.5638 38.7407 51.5638 37.096 50.9338 35.6807C50.7495 35.2829 50.4561 34.9455 50.0877 34.7077C49.7193 34.47 49.291 34.3416 48.8525 34.3375Z" fill="white"/>
</svg>
