<svg width="69" height="68" viewBox="0 0 69 68" fill="none" xmlns="http://www.w3.org/2000/svg">
<path d="M29.4763 44.1477C29.3448 44.1825 29.2214 44.2428 29.1132 44.3253C29.005 44.4078 28.9141 44.5109 28.8458 44.6285C28.7774 44.7462 28.733 44.8762 28.7149 45.011C28.6969 45.1459 28.7056 45.283 28.7406 45.4145C29.0208 46.4307 28.9582 47.5109 28.5625 48.488C28.1667 49.465 27.4598 50.2843 26.5513 50.819C26.3565 50.9313 26.2057 51.1067 26.1238 51.3162C26.0447 51.5174 26.0302 51.7382 26.0822 51.9481C26.1343 52.1579 26.2503 52.3463 26.4142 52.4872C26.5781 52.6282 26.7819 52.7146 26.9971 52.7346C27.2124 52.7546 27.4285 52.7071 27.6156 52.5987C28.9085 51.8321 29.914 50.6622 30.4776 49.2687C31.0464 47.8753 31.1397 46.3331 30.7431 44.8812C30.6715 44.6173 30.4984 44.3924 30.2616 44.2557C30.1444 44.1855 30.0142 44.1398 29.8788 44.1212C29.7435 44.1026 29.6081 44.1117 29.4763 44.1477Z" fill="white"/>
<path d="M22.1206 66.4612C24.028 67.4198 26.1627 67.834 28.2901 67.6582C31.091 67.4425 33.7759 66.4485 36.0419 64.7883C38.308 63.1281 40.0651 60.8678 41.1151 58.2622L45.3001 47.937C46.3618 45.3401 46.6767 42.4982 46.2091 39.732C45.7416 36.9657 44.5103 34.3851 42.6541 32.2815C41.3572 30.796 39.7033 29.6653 37.8484 28.9961C35.9935 28.3269 33.9987 28.1412 32.0521 28.4565C30.1356 28.7505 28.325 29.5264 26.7903 30.7113C25.2555 31.8963 24.0467 33.4515 23.2771 35.2312L23.1579 35.4945C22.1428 37.9745 21.9712 40.7194 22.6696 43.3065C22.8008 43.7792 22.7722 44.2821 22.5883 44.7369C22.4044 45.1918 22.0755 45.5732 21.6526 45.822C19.3587 47.1744 17.5758 49.2468 16.5811 51.717L16.4641 52.0005C15.7662 53.8166 15.5425 55.7807 15.8142 57.7073C16.0858 59.6339 16.8438 61.4595 18.0166 63.012C19.0968 64.4661 20.5023 65.6474 22.1206 66.4612ZM26.7466 46.4182C27.3009 45.057 27.3957 43.552 27.0166 42.132L26.9874 42.1387C26.5499 40.5283 26.6446 38.8196 27.2574 37.2675L27.3654 37.0425C27.8246 35.948 28.559 34.9908 29.4973 34.2638C30.4356 33.5368 31.5458 33.0648 32.7204 32.8935C33.9178 32.6973 35.1455 32.8099 36.2872 33.2205C37.429 33.6312 38.4472 34.3263 39.2454 35.2402C40.5505 36.7188 41.4161 38.5328 41.7446 40.4775C42.073 42.4221 41.851 44.4198 41.1039 46.245L36.9189 56.568C36.1817 58.3971 34.9488 59.9842 33.3588 61.1509C31.7689 62.3175 29.8849 63.0174 27.9189 63.1717C26.7126 63.269 25.5014 63.0578 24.3992 62.5579C23.2971 62.058 22.3403 61.2859 21.6189 60.3142C20.9069 59.3961 20.4406 58.3117 20.2638 57.1634C20.0871 56.0151 20.2057 54.8407 20.6086 53.751L20.7324 53.454C21.3624 51.8767 22.4964 50.5515 23.9589 49.6852C25.2189 48.927 26.1954 47.7817 26.7489 46.4182M54.4239 16.3155C54.3571 16.1682 54.2562 16.0391 54.1293 15.9389C54.0025 15.8387 53.8535 15.7703 53.6949 15.7395C53.4264 15.6874 53.1481 15.7415 52.9186 15.8902C52.8046 15.9645 52.7064 16.0606 52.6295 16.173C52.5527 16.2853 52.4988 16.4117 52.4709 16.545C52.1559 18.0367 52.3359 19.542 52.9749 20.91C53.6108 22.2743 54.6804 23.3898 56.0169 24.0825C56.2597 24.2105 56.5435 24.2367 56.8058 24.1555C57.068 24.0743 57.2872 23.8922 57.4152 23.6493C57.5432 23.4065 57.5695 23.1227 57.4883 22.8604C57.4071 22.5982 57.225 22.379 56.9821 22.251C56.0473 21.7642 55.2984 20.9836 54.8508 20.0294C54.4031 19.0752 54.2816 18.0003 54.5049 16.9702C54.5439 16.7488 54.5157 16.5207 54.4239 16.3155Z" fill="white"/>
<path d="M56.2942 39.2584H56.58C58.5027 39.2618 60.3962 38.7877 62.0903 37.8785C63.7845 36.9694 65.2264 35.6537 66.2865 34.0496C67.3712 32.4358 68.0272 30.5722 68.1925 28.6347C68.3579 26.6972 68.0271 24.7495 67.2315 22.9751L67.1235 22.7501C65.9952 20.3227 64.097 18.3359 61.7235 17.0982C61.2877 16.8705 60.9384 16.5064 60.7292 16.0614C60.5199 15.6165 60.4622 15.1153 60.5647 14.6344C61.1198 12.0136 60.798 9.28294 59.649 6.8629L59.5365 6.6379C58.6747 4.89357 57.3828 3.39754 55.7825 2.29094C54.1823 1.18435 52.3265 0.503682 50.3902 0.313151C48.4305 0.105032 46.45 0.399213 44.6353 1.16798C42.8207 1.93675 41.2316 3.1548 40.0177 4.7074C38.2782 6.91195 37.1891 9.55855 36.873 12.3489C36.557 15.1392 37.0266 17.9624 38.229 20.5001L42.9787 30.5801C44.1674 33.1246 46.0441 35.2858 48.3968 36.8194C50.7495 38.353 53.4865 39.1978 56.2942 39.2584ZM46.0522 5.4679C47.0275 4.99644 48.0965 4.75109 49.1797 4.75015C50.5092 4.74609 51.8129 5.11723 52.9408 5.82092C54.0688 6.52461 54.9753 7.5323 55.5562 8.72815L55.581 8.78215C56.3105 10.3146 56.516 12.0444 56.166 13.7051C55.8548 15.1443 56.0259 16.6458 56.6529 17.978C57.28 19.3102 58.3281 20.3989 59.6355 21.0761C61.1839 21.8942 62.4134 23.2076 63.1275 24.8066C63.6209 25.8864 63.8267 27.0753 63.7249 28.258C63.6232 29.4407 63.2175 30.577 62.547 31.5566C61.8747 32.5633 60.9594 33.3842 59.8857 33.9435C58.8121 34.5027 57.6148 34.7822 56.4045 34.7561C54.4317 34.7142 52.51 34.1211 50.8567 33.0439C49.2034 31.9668 47.8844 30.4485 47.049 28.6609L42.3015 18.5831C41.4567 16.8002 41.1264 14.8167 41.3478 12.8562C41.5692 10.8956 42.3336 9.03582 43.5547 7.48615C44.223 6.63115 45.0757 5.94265 46.0522 5.4679ZM19.158 13.7861C19.2723 13.6737 19.4108 13.5887 19.5628 13.5377C19.7148 13.4866 19.8765 13.4708 20.0355 13.4914C20.31 13.5274 20.5552 13.6714 20.706 13.9009C20.8722 14.119 20.945 14.3941 20.9085 14.6659C20.7058 16.1554 20.0197 17.5372 18.9555 18.5989C17.8938 19.6631 16.512 20.3492 15.0225 20.5519C14.8854 20.5752 14.7451 20.5707 14.6098 20.5387C14.4745 20.5067 14.347 20.4478 14.2349 20.3655C14.1228 20.2833 14.0284 20.1793 13.9573 20.0598C13.8862 19.9403 13.8398 19.8078 13.821 19.67C13.8021 19.5323 13.8111 19.3921 13.8475 19.2579C13.8839 19.1237 13.9469 18.9982 14.0327 18.8889C14.1186 18.7795 14.2255 18.6885 14.3472 18.6213C14.469 18.5541 14.603 18.512 14.7412 18.4976C15.7859 18.3593 16.7559 17.8806 17.501 17.1354C18.2462 16.3903 18.7249 15.4203 18.8632 14.3756C18.8962 14.1528 18.9995 13.9462 19.158 13.7861Z" fill="white"/>
<path d="M8.74319 35.3794C11.4068 36.275 14.2682 36.4059 17.0025 35.7572C19.7368 35.1085 22.2344 33.7063 24.2119 31.7097L32.0869 23.8347C34.0805 21.8556 35.4806 19.3583 36.1287 16.625C36.7768 13.8917 36.6472 11.0316 35.7544 8.36816C35.1347 6.49413 34.0482 4.80863 32.5973 3.47032C31.1464 2.13201 29.3788 1.18491 27.4609 0.718162C25.5675 0.245291 23.5849 0.262165 21.6998 0.767196C19.8147 1.27223 18.0891 2.24879 16.6857 3.60491L16.4832 3.81416C14.6185 5.69565 13.4144 8.13132 13.0519 10.7554C12.9855 11.2415 12.762 11.6925 12.4155 12.0397C12.0691 12.387 11.6186 12.6116 11.1327 12.6792C8.48534 13.0376 6.02994 14.2586 4.14644 16.1532L3.95294 16.3534C2.60313 17.7544 1.63246 19.4762 1.13251 21.3563C0.632559 23.2365 0.619801 25.213 1.09544 27.0994C1.56226 29.0157 2.50959 30.7815 3.84805 32.2302C5.18651 33.6789 6.86973 34.7627 8.74319 35.3794ZM17.5069 11.3832C17.7409 9.69791 18.5194 8.13866 19.7232 6.93716L19.8357 6.81791C20.6867 5.99162 21.7361 5.39837 22.8829 5.09533C24.0296 4.79228 25.2351 4.78964 26.3832 5.08766C27.5611 5.37687 28.6462 5.96079 29.5365 6.78457C30.4268 7.60834 31.0931 8.64492 31.4727 9.79691C32.0993 11.6677 32.1902 13.6764 31.7349 15.5961C31.2796 17.5158 30.2964 19.2698 28.8964 20.6599L21.0214 28.5349C19.6313 29.9341 17.8775 30.9166 15.9583 31.3715C14.0391 31.8263 12.0309 31.7354 10.1607 31.1089C9.00932 30.7299 7.97353 30.0637 7.15114 29.1732C6.32874 28.2827 5.74686 27.1972 5.46044 26.0194C5.16197 24.8422 5.17601 23.6076 5.50118 22.4375C5.82636 21.2674 6.45139 20.2025 7.31444 19.3482C8.50751 18.1384 10.0694 17.3602 11.7537 17.1364C13.2108 16.9408 14.5632 16.2717 15.6027 15.2322C16.6423 14.1926 17.3113 12.8402 17.5069 11.3832Z" fill="white"/>
</svg>
