<svg width="57" height="68" viewBox="0 0 57 68" fill="none" xmlns="http://www.w3.org/2000/svg">
<path fill-rule="evenodd" clip-rule="evenodd" d="M15.2825 0.25C9.47076 0.25 6.58401 7.2655 10.6768 11.3582L11.7275 12.409V13.795C11.7275 14.5195 11.9795 15.1878 12.4025 15.712C12.41 15.8455 12.4198 15.976 12.4318 16.1035L12.515 17.3725C11.9059 17.9341 11.42 18.616 11.088 19.3751C10.7561 20.1342 10.5854 20.954 10.5868 21.7825C10.5868 23.2675 11.1268 24.631 12.02 25.6772V26.935C12.02 28.8565 12.7873 30.6362 14.0675 31.9368C14.258 32.4618 14.4845 32.9658 14.747 33.4487L12.7108 34.9428C11.8805 35.485 11.0593 36.0947 10.301 36.7202H10.2988C7.23144 39.2474 4.76195 42.4225 3.06772 46.0175C1.37349 49.6126 0.496584 53.5382 0.50001 57.5125V65.5C0.50001 66.0967 0.737063 66.669 1.15902 67.091C1.58098 67.5129 2.15327 67.75 2.75001 67.75H52.25C53.4155 67.75 54.4775 67.264 55.2425 66.5642C56.012 65.86 56.6375 64.7868 56.6375 63.4975V52.27C56.6375 49.9795 54.9163 48.085 52.7 47.806V45.259L52.7023 45.2545L52.7045 45.25C52.7195 45.222 52.7402 45.1974 52.7653 45.178C53.7485 44.4873 54.509 43.5423 55.0018 42.4352C55.6394 41.0234 55.9711 39.4925 55.975 37.9433C55.9789 36.3941 55.6549 34.8616 55.0243 33.4465C54.4912 32.256 53.6246 31.2454 52.5293 30.5371C51.434 29.8287 50.1569 29.4528 48.8525 29.455C47.5495 29.4525 46.2736 29.8272 45.1788 30.5339C44.0841 31.2406 43.2172 32.249 42.683 33.4375C42.4673 33.9162 42.2853 34.4094 42.1385 34.9135L41.8775 34.7447L40.3993 33.6737C40.8403 32.9087 41.186 32.092 41.4365 31.2235C42.3645 29.9862 42.8665 28.4816 42.8675 26.935V25.837C43.8824 24.7309 44.4446 23.2837 44.4425 21.7825C44.4425 20.122 43.7675 18.6213 42.683 17.5345L42.7685 16.1305C42.8045 15.811 42.8308 15.4893 42.8473 15.1653C43.0543 14.749 43.1735 14.272 43.16 13.7567V12.4315L44.2333 11.3582C48.326 7.2655 45.437 0.25 39.6275 0.25H15.2825ZM41.0518 8.17675L39.5218 9.70675C39.2533 9.91726 39.0362 10.1861 38.8869 10.4928C38.7376 10.7996 38.66 11.1363 38.66 11.4775V12.625H16.2275V11.4775C16.2274 10.8808 15.9902 10.3086 15.5683 9.88675L13.8583 8.17675C12.596 6.9145 13.4893 4.75 15.2825 4.75H39.6275C41.4208 4.75 42.314 6.9145 41.0518 8.17675ZM25.4525 35.0575C23.918 35.0589 22.4171 34.608 21.1374 33.7612C19.8576 32.9145 18.8558 31.7094 18.257 30.2965L18.1738 30.0378C18.1341 29.9042 18.0821 29.7747 18.0185 29.6508C17.8835 29.2273 17.7856 28.7929 17.726 28.3525L17.0825 18.6213C17.0897 18.5179 17.0897 18.4141 17.0825 18.3108L16.9183 15.7863L16.9138 15.7345C16.8881 15.4486 16.8716 15.162 16.8643 14.875H38.3315C38.3195 15.0205 38.3045 15.166 38.2865 15.3115L38.2798 15.3497L37.4675 28.3547C37.2039 30.2157 36.2769 31.9187 34.8571 33.1504C33.4374 34.382 31.6205 35.0593 29.741 35.0575H25.4525ZM14.4005 39.238C13.9715 39.5455 13.5583 39.8627 13.1608 40.1898C10.6053 42.295 8.54806 44.9404 7.13701 47.9356C5.72595 50.9308 4.99613 54.2015 5.00001 57.5125V63.25H42.1655C42.2121 62.8434 42.3374 62.4499 42.5345 62.0913C42.2666 61.6252 42.1252 61.0972 42.1245 60.5596C42.1237 60.022 42.2635 59.4936 42.53 59.0267C42.2615 58.557 42.1214 58.0248 42.1238 57.4837C42.1261 56.9426 42.2709 56.4117 42.5435 55.9443C42.266 55.4522 42.129 54.8934 42.1475 54.3288C42.1835 52.8775 43.2748 51.6332 44.7035 51.478C44.8017 51.4509 44.9031 51.4373 45.005 51.4375H46.1075V45.0993C46.1057 44.9132 46.0587 44.7304 45.9705 44.5665C45.8823 44.4027 45.7556 44.2627 45.6013 44.1587L45.5878 44.1475L45.572 44.1385C44.7715 43.5557 44.132 42.7792 43.7135 41.8818C43.6424 41.7284 43.5756 41.5731 43.5133 41.416C43.151 41.3254 42.8169 41.146 42.5413 40.894C41.8917 40.3025 41.208 39.7495 40.4938 39.238H30.8143C31.5899 39.7789 32.2234 40.4992 32.661 41.3375C33.0986 42.1758 33.3272 43.1074 33.3275 44.053V47.8105C31.7724 47.8105 30.2807 47.1936 29.1798 46.0953C28.0789 44.9969 27.4586 43.5066 27.455 41.9515C27.4514 43.5066 26.8312 44.9969 25.7302 46.0953C24.6293 47.1936 23.1377 47.8105 21.5825 47.8105V44.053C21.5825 42.0618 22.577 40.3 24.0958 39.238H14.4005ZM52.1375 55.5775V53.6875H45.2413C45.1636 53.7041 45.0844 53.7124 45.005 53.7122C44.735 53.7122 44.4065 53.971 44.3975 54.3873V54.3985C44.3927 54.5263 44.4174 54.6534 44.4697 54.7701C44.522 54.8867 44.6005 54.9898 44.699 55.0713C44.8387 55.1783 44.9513 55.3166 45.0277 55.4751C45.1042 55.6336 45.1425 55.8078 45.1394 55.9837C45.1364 56.1596 45.0921 56.3324 45.0101 56.4881C44.9281 56.6438 44.8108 56.7781 44.6675 56.8803C44.5753 56.9527 44.5009 57.0453 44.4502 57.151C44.3995 57.2568 44.3738 57.3727 44.375 57.49C44.375 57.7938 44.51 57.9963 44.645 58.0885C44.7948 58.1904 44.9178 58.3269 45.0036 58.4865C45.0893 58.6461 45.1352 58.824 45.1374 59.0051C45.1396 59.1863 45.0981 59.3653 45.0162 59.5269C44.9344 59.6885 44.8148 59.828 44.6675 59.9335C44.5747 60.0064 44.5 60.0998 44.4492 60.2063C44.3985 60.3129 44.3731 60.4297 44.375 60.5477C44.375 60.8493 44.51 61.0517 44.645 61.144C44.7941 61.2451 44.9168 61.3806 45.0026 61.5391C45.0885 61.6975 45.135 61.8742 45.1383 62.0544C45.1416 62.2345 45.1016 62.4129 45.0216 62.5743C44.9417 62.7358 44.8241 62.8757 44.6788 62.9823C44.5873 63.0522 44.5153 63.1444 44.4695 63.25H52.1375V55.5775ZM48.8525 34.3375C47.9413 34.3375 47.1335 34.8685 46.7758 35.6717C46.4619 36.3772 46.2997 37.1429 46.2997 37.915C46.2997 38.6871 46.4619 39.4506 46.7758 40.156C47.1335 40.9615 47.9413 41.4925 48.8525 41.4925C49.7638 41.4925 50.5715 40.9615 50.9293 40.1582C51.5638 38.7407 51.5638 37.096 50.9338 35.6807C50.7495 35.2829 50.4561 34.9455 50.0877 34.7077C49.7193 34.47 49.291 34.3416 48.8525 34.3375Z" fill="white"/>
</svg>
