<svg width="186" height="50" viewBox="0 0 186 50" fill="none" xmlns="http://www.w3.org/2000/svg">
<g clip-path="url(#clip0_1_386)">
<path d="M16.8975 24.0693L0.149414 41.6163C0.337494 42.2829 0.675479 42.8976 1.13753 43.4134C1.59959 43.9293 2.17348 44.3327 2.81534 44.5928C3.45719 44.8529 4.15002 44.9628 4.84086 44.9142C5.5317 44.8655 6.20226 44.6594 6.80129 44.3119L25.6461 33.5792L16.8975 24.0693Z" fill="#EA4335"/>
<path d="M33.8337 21.0866L25.6846 16.4189L16.5117 24.4684L25.7219 33.5539L33.809 28.9363C34.5254 28.5611 35.1255 27.9971 35.5441 27.3052C35.9628 26.6133 36.1842 25.8201 36.1842 25.0114C36.1842 24.2027 35.9628 23.4094 35.5441 22.7176C35.1255 22.0257 34.5254 21.4616 33.809 21.0865L33.8337 21.0866Z" fill="#FBBC04"/>
<path d="M0.149806 8.3197C0.0486319 8.69397 -0.00176063 9.08014 -1.73087e-05 9.46783V40.4681C0.000981713 40.8557 0.0513277 41.2415 0.149806 41.6164L17.4721 24.5187L0.149806 8.3197Z" fill="#4285F4"/>
<path d="M17.0223 24.9681L25.6835 16.4192L6.86376 5.63648C6.15567 5.2218 5.35034 5.00219 4.52977 5.00001C2.49344 4.99605 0.703195 6.34757 0.149414 8.30729L17.0223 24.9681Z" fill="#34A853"/>
</g>
<path d="M45.9637 6.05C45.7837 5.70333 45.5337 5.44333 45.2137 5.27C44.8937 5.09 44.5237 5 44.1037 5C43.6437 5 43.2337 5.10333 42.8737 5.31C42.5137 5.51667 42.2304 5.81 42.0237 6.19C41.8237 6.57 41.7237 7.01 41.7237 7.51C41.7237 8.01 41.8237 8.45333 42.0237 8.84C42.2304 9.22 42.5137 9.51333 42.8737 9.72C43.2337 9.92667 43.6437 10.03 44.1037 10.03C44.7237 10.03 45.227 9.85667 45.6137 9.51C46.0004 9.16333 46.237 8.69333 46.3237 8.1H43.7137V7.19H47.5437V8.08C47.4704 8.62 47.277 9.11667 46.9637 9.57C46.657 10.0233 46.2537 10.3867 45.7537 10.66C45.2604 10.9267 44.7104 11.06 44.1037 11.06C43.4504 11.06 42.8537 10.91 42.3137 10.61C41.7737 10.3033 41.3437 9.88 41.0237 9.34C40.7104 8.8 40.5537 8.19 40.5537 7.51C40.5537 6.83 40.7104 6.22 41.0237 5.68C41.3437 5.14 41.7737 4.72 42.3137 4.42C42.8604 4.11333 43.457 3.96 44.1037 3.96C44.8437 3.96 45.5004 4.14333 46.0737 4.51C46.6537 4.87 47.0737 5.38333 47.3337 6.05H45.9637ZM49.8081 4.97V7.01H52.2081V7.94H49.8081V10.07H52.5081V11H48.6681V4.04H52.5081V4.97H49.8081ZM58.4022 4.05V4.98H56.5522V11H55.4122V4.98H53.5522V4.05H58.4022ZM63.2944 4.05V11H62.1544V4.05H63.2944ZM69.2811 4.05V4.98H67.4311V11H66.2911V4.98H64.4311V4.05H69.2811ZM73.6057 11.07C72.959 11.07 72.3623 10.92 71.8157 10.62C71.2757 10.3133 70.8457 9.89 70.5257 9.35C70.2123 8.80333 70.0557 8.19 70.0557 7.51C70.0557 6.83 70.2123 6.22 70.5257 5.68C70.8457 5.14 71.2757 4.72 71.8157 4.42C72.3623 4.11333 72.959 3.96 73.6057 3.96C74.259 3.96 74.8557 4.11333 75.3957 4.42C75.9423 4.72 76.3723 5.14 76.6857 5.68C76.999 6.22 77.1557 6.83 77.1557 7.51C77.1557 8.19 76.999 8.80333 76.6857 9.35C76.3723 9.89 75.9423 10.3133 75.3957 10.62C74.8557 10.92 74.259 11.07 73.6057 11.07ZM73.6057 10.08C74.0657 10.08 74.4757 9.97667 74.8357 9.77C75.1957 9.55667 75.4757 9.25667 75.6757 8.87C75.8823 8.47667 75.9857 8.02333 75.9857 7.51C75.9857 6.99667 75.8823 6.54667 75.6757 6.16C75.4757 5.77333 75.1957 5.47667 74.8357 5.27C74.4757 5.06333 74.0657 4.96 73.6057 4.96C73.1457 4.96 72.7357 5.06333 72.3757 5.27C72.0157 5.47667 71.7323 5.77333 71.5257 6.16C71.3257 6.54667 71.2257 6.99667 71.2257 7.51C71.2257 8.02333 71.3257 8.47667 71.5257 8.87C71.7323 9.25667 72.0157 9.55667 72.3757 9.77C72.7357 9.97667 73.1457 10.08 73.6057 10.08ZM83.9875 11H82.8475L79.4175 5.81V11H78.2775V4.04H79.4175L82.8475 9.22V4.04H83.9875V11Z" fill="#050505"/>
<path d="M53.5037 28.288C53.1197 27.584 52.5917 27.048 51.9197 26.68C51.2477 26.312 50.4637 26.128 49.5677 26.128C48.5757 26.128 47.6957 26.352 46.9277 26.8C46.1597 27.248 45.5597 27.888 45.1277 28.72C44.6957 29.552 44.4797 30.512 44.4797 31.6C44.4797 32.72 44.6957 33.696 45.1277 34.528C45.5757 35.36 46.1917 36 46.9757 36.448C47.7597 36.896 48.6717 37.12 49.7117 37.12C50.9917 37.12 52.0397 36.784 52.8557 36.112C53.6717 35.424 54.2077 34.472 54.4637 33.256H48.7037V30.688H57.7757V33.616C57.5517 34.784 57.0717 35.864 56.3357 36.856C55.5997 37.848 54.6477 38.648 53.4797 39.256C52.3277 39.848 51.0317 40.144 49.5917 40.144C47.9757 40.144 46.5117 39.784 45.1997 39.064C43.9037 38.328 42.8797 37.312 42.1277 36.016C41.3917 34.72 41.0237 33.248 41.0237 31.6C41.0237 29.952 41.3917 28.48 42.1277 27.184C42.8797 25.872 43.9037 24.856 45.1997 24.136C46.5117 23.4 47.9677 23.032 49.5677 23.032C51.4557 23.032 53.0957 23.496 54.4877 24.424C55.8797 25.336 56.8397 26.624 57.3677 28.288H53.5037ZM66.1656 40.216C64.8856 40.216 63.7336 39.936 62.7096 39.376C61.6856 38.8 60.8776 37.992 60.2856 36.952C59.7096 35.912 59.4216 34.712 59.4216 33.352C59.4216 31.992 59.7176 30.792 60.3096 29.752C60.9176 28.712 61.7416 27.912 62.7816 27.352C63.8216 26.776 64.9816 26.488 66.2616 26.488C67.5416 26.488 68.7016 26.776 69.7416 27.352C70.7816 27.912 71.5976 28.712 72.1896 29.752C72.7976 30.792 73.1016 31.992 73.1016 33.352C73.1016 34.712 72.7896 35.912 72.1656 36.952C71.5576 37.992 70.7256 38.8 69.6696 39.376C68.6296 39.936 67.4616 40.216 66.1656 40.216ZM66.1656 37.288C66.7736 37.288 67.3416 37.144 67.8696 36.856C68.4136 36.552 68.8456 36.104 69.1656 35.512C69.4856 34.92 69.6456 34.2 69.6456 33.352C69.6456 32.088 69.3096 31.12 68.6376 30.448C67.9816 29.76 67.1736 29.416 66.2136 29.416C65.2536 29.416 64.4456 29.76 63.7896 30.448C63.1496 31.12 62.8296 32.088 62.8296 33.352C62.8296 34.616 63.1416 35.592 63.7656 36.28C64.4056 36.952 65.2056 37.288 66.1656 37.288ZM81.4703 40.216C80.1903 40.216 79.0383 39.936 78.0143 39.376C76.9903 38.8 76.1823 37.992 75.5903 36.952C75.0143 35.912 74.7263 34.712 74.7263 33.352C74.7263 31.992 75.0223 30.792 75.6143 29.752C76.2223 28.712 77.0463 27.912 78.0863 27.352C79.1263 26.776 80.2863 26.488 81.5663 26.488C82.8463 26.488 84.0063 26.776 85.0463 27.352C86.0863 27.912 86.9023 28.712 87.4943 29.752C88.1023 30.792 88.4063 31.992 88.4063 33.352C88.4063 34.712 88.0943 35.912 87.4703 36.952C86.8623 37.992 86.0303 38.8 84.9743 39.376C83.9343 39.936 82.7663 40.216 81.4703 40.216ZM81.4703 37.288C82.0783 37.288 82.6463 37.144 83.1743 36.856C83.7183 36.552 84.1503 36.104 84.4703 35.512C84.7903 34.92 84.9503 34.2 84.9503 33.352C84.9503 32.088 84.6143 31.12 83.9423 30.448C83.2863 29.76 82.4783 29.416 81.5183 29.416C80.5583 29.416 79.7503 29.76 79.0943 30.448C78.4543 31.12 78.1343 32.088 78.1343 33.352C78.1343 34.616 78.4463 35.592 79.0703 36.28C79.7103 36.952 80.5103 37.288 81.4703 37.288ZM96.079 26.488C97.071 26.488 97.943 26.688 98.695 27.088C99.447 27.472 100.039 27.976 100.471 28.6V26.704H103.855V40.096C103.855 41.328 103.607 42.424 103.111 43.384C102.615 44.36 101.871 45.128 100.879 45.688C99.887 46.264 98.687 46.552 97.279 46.552C95.391 46.552 93.839 46.112 92.623 45.232C91.423 44.352 90.743 43.152 90.583 41.632H93.919C94.095 42.24 94.471 42.72 95.047 43.072C95.639 43.44 96.351 43.624 97.183 43.624C98.159 43.624 98.951 43.328 99.559 42.736C100.167 42.16 100.471 41.28 100.471 40.096V38.032C100.039 38.656 99.439 39.176 98.671 39.592C97.919 40.008 97.055 40.216 96.079 40.216C94.959 40.216 93.935 39.928 93.007 39.352C92.079 38.776 91.343 37.968 90.799 36.928C90.271 35.872 90.007 34.664 90.007 33.304C90.007 31.96 90.271 30.768 90.799 29.728C91.343 28.688 92.071 27.888 92.983 27.328C93.911 26.768 94.943 26.488 96.079 26.488ZM100.471 33.352C100.471 32.536 100.311 31.84 99.991 31.264C99.671 30.672 99.239 30.224 98.695 29.92C98.151 29.6 97.567 29.44 96.943 29.44C96.319 29.44 95.743 29.592 95.215 29.896C94.687 30.2 94.255 30.648 93.919 31.24C93.599 31.816 93.439 32.504 93.439 33.304C93.439 34.104 93.599 34.808 93.919 35.416C94.255 36.008 94.687 36.464 95.215 36.784C95.759 37.104 96.335 37.264 96.943 37.264C97.567 37.264 98.151 37.112 98.695 36.808C99.239 36.488 99.671 36.04 99.991 35.464C100.311 34.872 100.471 34.168 100.471 33.352ZM110.497 22.24V40H107.137V22.24H110.497ZM126.176 33.064C126.176 33.544 126.144 33.976 126.08 34.36H116.36C116.44 35.32 116.776 36.072 117.368 36.616C117.96 37.16 118.688 37.432 119.552 37.432C120.8 37.432 121.688 36.896 122.216 35.824H125.84C125.456 37.104 124.72 38.16 123.632 38.992C122.544 39.808 121.208 40.216 119.624 40.216C118.344 40.216 117.192 39.936 116.168 39.376C115.16 38.8 114.368 37.992 113.792 36.952C113.232 35.912 112.952 34.712 112.952 33.352C112.952 31.976 113.232 30.768 113.792 29.728C114.352 28.688 115.136 27.888 116.144 27.328C117.152 26.768 118.312 26.488 119.624 26.488C120.888 26.488 122.016 26.76 123.008 27.304C124.016 27.848 124.792 28.624 125.336 29.632C125.896 30.624 126.176 31.768 126.176 33.064ZM122.696 32.104C122.68 31.24 122.368 30.552 121.76 30.04C121.152 29.512 120.408 29.248 119.528 29.248C118.696 29.248 117.992 29.504 117.416 30.016C116.856 30.512 116.512 31.208 116.384 32.104H122.696ZM146.564 28.432C146.564 29.328 146.348 30.168 145.916 30.952C145.5 31.736 144.836 32.368 143.924 32.848C143.028 33.328 141.892 33.568 140.516 33.568H137.708V40H134.348V23.248H140.516C141.812 23.248 142.916 23.472 143.828 23.92C144.74 24.368 145.42 24.984 145.868 25.768C146.332 26.552 146.564 27.44 146.564 28.432ZM140.372 30.856C141.3 30.856 141.988 30.648 142.436 30.232C142.884 29.8 143.108 29.2 143.108 28.432C143.108 26.8 142.196 25.984 140.372 25.984H137.708V30.856H140.372ZM152.309 22.24V40H148.949V22.24H152.309ZM154.765 33.304C154.765 31.96 155.029 30.768 155.557 29.728C156.101 28.688 156.829 27.888 157.741 27.328C158.669 26.768 159.701 26.488 160.837 26.488C161.829 26.488 162.693 26.688 163.429 27.088C164.181 27.488 164.781 27.992 165.229 28.6V26.704H168.613V40H165.229V38.056C164.797 38.68 164.197 39.2 163.429 39.616C162.677 40.016 161.805 40.216 160.813 40.216C159.693 40.216 158.669 39.928 157.741 39.352C156.829 38.776 156.101 37.968 155.557 36.928C155.029 35.872 154.765 34.664 154.765 33.304ZM165.229 33.352C165.229 32.536 165.069 31.84 164.749 31.264C164.429 30.672 163.997 30.224 163.453 29.92C162.909 29.6 162.325 29.44 161.701 29.44C161.077 29.44 160.501 29.592 159.973 29.896C159.445 30.2 159.013 30.648 158.677 31.24C158.357 31.816 158.197 32.504 158.197 33.304C158.197 34.104 158.357 34.808 158.677 35.416C159.013 36.008 159.445 36.464 159.973 36.784C160.517 37.104 161.093 37.264 161.701 37.264C162.325 37.264 162.909 37.112 163.453 36.808C163.997 36.488 164.429 36.04 164.749 35.464C165.069 34.872 165.229 34.168 165.229 33.352ZM184.614 26.704L176.382 46.288H172.806L175.686 39.664L170.358 26.704H174.126L177.558 35.992L181.038 26.704H184.614Z" fill="#050505"/>
<defs>
<clipPath id="clip0_1_386">
<rect width="36.1837" height="40" fill="white" transform="translate(0 5)"/>
</clipPath>
</defs>
</svg>
