<svg width="27" height="28" viewBox="0 0 27 28" fill="none" xmlns="http://www.w3.org/2000/svg">
<path fill-rule="evenodd" clip-rule="evenodd" d="M0.257812 13.9065C0.257812 8.58489 0.257812 5.92408 1.52591 4.00757C2.09218 3.15176 2.8251 2.41884 3.68091 1.85257C5.59742 0.584473 8.25823 0.584473 13.5798 0.584473C18.9015 0.584473 21.5623 0.584473 23.4788 1.85257C24.3346 2.41884 25.0675 3.15176 25.6338 4.00757C26.9019 5.92408 26.9019 8.58489 26.9019 13.9065C26.9019 19.2281 26.9019 21.8889 25.6338 23.8054C25.0675 24.6613 24.3346 25.3942 23.4788 25.9604C21.5623 27.2285 18.9015 27.2285 13.5798 27.2285C8.25823 27.2285 5.59742 27.2285 3.68091 25.9604C2.8251 25.3942 2.09218 24.6613 1.52591 23.8054C0.257812 21.8889 0.257812 19.2281 0.257812 13.9065ZM20.4766 13.9072C20.4766 17.7163 17.3887 20.8042 13.5796 20.8042C9.77054 20.8042 6.68265 17.7163 6.68265 13.9072C6.68265 10.0981 9.77054 7.01021 13.5796 7.01021C17.3887 7.01021 20.4766 10.0981 20.4766 13.9072ZM13.5796 18.4707C16.1 18.4707 18.1432 16.4276 18.1432 13.9072C18.1432 11.3868 16.1 9.34365 13.5796 9.34365C11.0593 9.34365 9.01609 11.3868 9.01609 13.9072C9.01609 16.4276 11.0593 18.4707 13.5796 18.4707ZM20.7487 8.28408C21.6438 8.28408 22.3693 7.55851 22.3693 6.66349C22.3693 5.76846 21.6438 5.0429 20.7487 5.0429C19.8537 5.0429 19.1281 5.76846 19.1281 6.66349C19.1281 7.55851 19.8537 8.28408 20.7487 8.28408Z" fill="#D68240"/>
</svg>
