<svg width="27" height="26" viewBox="0 0 27 26" fill="none" xmlns="http://www.w3.org/2000/svg">
<path d="M0.256836 3.16687C0.256836 2.31247 0.55689 1.6076 1.15697 1.05227C1.75706 0.496906 2.53719 0.219238 3.49733 0.219238C4.44034 0.219238 5.2033 0.492625 5.78625 1.03945C6.38633 1.60335 6.68639 2.3381 6.68639 3.24377C6.68639 4.06398 6.39492 4.74747 5.81197 5.2943C5.21189 5.85819 4.42319 6.14014 3.44589 6.14014H3.42018C2.47717 6.14014 1.71421 5.85819 1.13126 5.2943C0.5483 4.7304 0.256836 4.02125 0.256836 3.16687ZM0.591173 25.5945V8.47262H6.30062V25.5945H0.591173ZM9.46396 25.5945H15.1734V16.0339C15.1734 15.4359 15.242 14.9745 15.3791 14.6498C15.6192 14.0688 15.9835 13.5776 16.4722 13.176C16.9608 12.7744 17.5738 12.5737 18.311 12.5737C20.2313 12.5737 21.1915 13.8638 21.1915 16.444V25.5945H26.9009V15.7776C26.9009 13.2486 26.3008 11.3305 25.1006 10.0233C23.9004 8.71612 22.3145 8.06251 20.3428 8.06251C18.131 8.06251 16.4079 9.01088 15.1734 10.9076V10.9589H15.1477L15.1734 10.9076V8.47262H9.46396C9.49824 9.01942 9.51539 10.7196 9.51539 13.5733C9.51539 16.427 9.49824 20.434 9.46396 25.5945Z" fill="#D68240"/>
</svg>
