<svg width="51" height="50" viewBox="0 0 51 50" fill="none" xmlns="http://www.w3.org/2000/svg">
<path d="M17.2071 22.9862C16.1797 22.9896 15.1704 23.2575 14.2765 23.7639C15.5351 20.5063 17.6224 17.6338 20.3321 15.4306C20.4871 15.3029 20.6155 15.146 20.7099 14.9687C20.8042 14.7914 20.8628 14.5973 20.8821 14.3974C20.9015 14.1975 20.8812 13.9957 20.8226 13.8036C20.764 13.6115 20.6681 13.4329 20.5404 13.2778C20.4127 13.1228 20.2558 12.9944 20.0785 12.9001C19.9012 12.8057 19.7071 12.7472 19.5072 12.7278C19.3073 12.7085 19.1055 12.7287 18.9134 12.7873C18.7213 12.8459 18.5427 12.9418 18.3876 13.0695C12.8321 17.5834 10.3599 23.8334 10.3599 27.7084C10.3694 29.0785 10.7777 30.4162 11.5349 31.5582C12.2921 32.7001 13.3654 33.5969 14.6238 34.1389C15.4381 34.5335 16.33 34.7422 17.2349 34.7501C18.0313 34.7888 18.8274 34.6653 19.5747 34.3872C20.3221 34.1091 21.0051 33.6821 21.5825 33.1321C22.1599 32.5821 22.6195 31.9205 22.9336 31.1876C23.2477 30.4546 23.4097 29.6655 23.4097 28.8681C23.4097 28.0707 23.2477 27.2816 22.9336 26.5486C22.6195 25.8157 22.1599 25.1542 21.5825 24.6042C21.0051 24.0542 20.3221 23.6272 19.5747 23.349C18.8274 23.0709 18.0313 22.9475 17.2349 22.9862H17.2071Z" fill="#EB9D20"/>
<path d="M32.6797 22.986C31.6522 22.9882 30.6426 23.2562 29.7492 23.7638C31.0072 20.5096 33.0891 17.638 35.7909 15.4305C35.96 15.3086 36.1023 15.1534 36.2092 14.9744C36.3161 14.7954 36.3852 14.5965 36.4123 14.3898C36.4394 14.1831 36.4239 13.9731 36.3668 13.7726C36.3097 13.5721 36.2122 13.3854 36.0802 13.224C35.9483 13.0627 35.7847 12.93 35.5996 12.8342C35.4144 12.7384 35.2116 12.6815 35.0037 12.667C34.7957 12.6525 34.587 12.6808 34.3904 12.7499C34.1938 12.8191 34.0134 12.9278 33.8603 13.0694C28.3047 17.5833 25.8325 23.8333 25.8325 27.7083C25.8391 29.0629 26.2355 30.3869 26.9744 31.5223C27.7132 32.6577 28.7633 33.5564 29.9992 34.111C30.8342 34.5171 31.7512 34.7262 32.6797 34.7221C33.4762 34.7609 34.2723 34.6374 35.0196 34.3593C35.7669 34.0812 36.45 33.6542 37.0274 33.1042C37.6048 32.5542 38.0644 31.8926 38.3785 31.1597C38.6926 30.4267 38.8545 29.6376 38.8545 28.8402C38.8545 28.0428 38.6926 27.2537 38.3785 26.5207C38.0644 25.7878 37.6048 25.1262 37.0274 24.5762C36.45 24.0262 35.7669 23.5992 35.0196 23.3211C34.2723 23.043 33.4762 22.9195 32.6797 22.9583V22.986Z" fill="#EB9D20"/>
</svg>
