<svg width="27" height="22" viewBox="0 0 27 22" fill="none" xmlns="http://www.w3.org/2000/svg">
<path d="M18.0606 0.142494V0.137695H19.3099L19.7664 0.228865C20.0707 0.288054 20.347 0.36562 20.5952 0.461589C20.8435 0.557557 21.0838 0.669528 21.316 0.797478C21.5482 0.925428 21.7589 1.0558 21.9479 1.18855C22.1353 1.31971 22.3035 1.45887 22.4524 1.60601C22.5997 1.75476 22.8296 1.79315 23.1419 1.72117C23.4542 1.6492 23.7906 1.54922 24.151 1.42127C24.5114 1.29332 24.8678 1.14937 25.2201 0.989415C25.5725 0.82946 25.7871 0.727901 25.864 0.684715C25.9393 0.639946 25.9793 0.615954 25.9841 0.612739L25.9889 0.605541L26.0129 0.593545L26.037 0.581549L26.061 0.569553L26.085 0.557557L26.0898 0.55036L26.097 0.545561L26.1043 0.540763L26.109 0.533565L26.1331 0.526367L26.1571 0.521569L26.1523 0.557557L26.1451 0.593545L26.1331 0.629533L26.1211 0.665522L26.109 0.689514L26.097 0.713506L26.085 0.749494C26.077 0.773486 26.069 0.805468 26.061 0.845462C26.053 0.885457 25.9769 1.04539 25.8328 1.3253C25.6886 1.60522 25.5084 1.88912 25.2922 2.17702C25.076 2.46493 24.8822 2.68244 24.7108 2.82961C24.5378 2.97836 24.4233 3.08232 24.3672 3.14151C24.3112 3.20228 24.2431 3.25825 24.163 3.30945L24.0429 3.38863L24.0188 3.40062L23.9948 3.41262L23.99 3.41982L23.9828 3.42461L23.9756 3.42941L23.9708 3.43661L23.9468 3.44861L23.9227 3.4606L23.918 3.4678L23.9107 3.4726L23.9035 3.4774L23.8987 3.48459L23.8939 3.49179L23.8867 3.49659L23.8795 3.50139L23.8747 3.50859H23.9948L24.6675 3.36463C25.116 3.26867 25.5445 3.15271 25.9529 3.01675L26.6016 2.80082L26.6736 2.77683L26.7097 2.76483L26.7337 2.75283L26.7577 2.74084L26.7818 2.72884L26.8058 2.71685L26.8538 2.70965L26.9019 2.70485V2.75283L26.8899 2.75763L26.8779 2.76483L26.8731 2.77203L26.8658 2.77683L26.8586 2.78163L26.8538 2.78882L26.8491 2.79602L26.8418 2.80082L26.8346 2.80562L26.8298 2.81282L26.825 2.82001L26.8178 2.82481L26.8058 2.8488L26.7938 2.8728L26.7866 2.87759C26.7834 2.88239 26.6817 3.01833 26.4814 3.28546C26.2812 3.55417 26.1731 3.69011 26.1571 3.69333C26.1411 3.69812 26.1187 3.72212 26.0898 3.7653C26.0626 3.81007 25.8928 3.98843 25.5805 4.30033C25.2682 4.61222 24.9623 4.88972 24.6627 5.13285C24.3616 5.37757 24.2095 5.67826 24.2063 6.03496C24.2015 6.39004 24.183 6.79152 24.151 7.23936C24.119 7.68722 24.0589 8.17104 23.9708 8.69088C23.8827 9.21072 23.7466 9.79852 23.5624 10.4543C23.3782 11.1101 23.1539 11.7499 22.8897 12.3737C22.6254 12.9975 22.3491 13.5573 22.0608 14.0531C21.7725 14.549 21.5082 14.9688 21.2679 15.3127C21.0277 15.6566 20.7835 15.9805 20.5352 16.2844C20.2869 16.5883 19.973 16.9306 19.5934 17.3112C19.2122 17.6903 19.004 17.8983 18.9687 17.935C18.9319 17.9702 18.775 18.1014 18.4978 18.3285C18.2224 18.5572 17.926 18.7859 17.6089 19.0147C17.2934 19.2418 17.0035 19.4314 16.7392 19.5833C16.4749 19.7352 16.1562 19.9088 15.783 20.1039C15.4114 20.3007 15.0094 20.483 14.5769 20.6509C14.1444 20.8189 13.688 20.9748 13.2075 21.1188C12.7269 21.2627 12.2625 21.3747 11.814 21.4547C11.3655 21.5346 10.857 21.6026 10.2884 21.6586L9.43548 21.7426V21.7546H7.87384V21.7426L7.66962 21.7306C7.53349 21.7226 7.42137 21.7146 7.33327 21.7066C7.24519 21.6986 6.91282 21.6546 6.33622 21.5746C5.75961 21.4947 5.30714 21.4147 4.97879 21.3347C4.65046 21.2548 4.16193 21.1028 3.51324 20.8789C2.86456 20.655 2.30957 20.4286 1.84829 20.1999C1.38861 19.9728 1.10031 19.8288 0.983377 19.768C0.868055 19.7088 0.738319 19.6353 0.594167 19.5473L0.377939 19.4154L0.373158 19.4082L0.365926 19.4034L0.358719 19.3986L0.353914 19.3914L0.329888 19.3794L0.305863 19.3674L0.301082 19.3602L0.29385 19.3554L0.286643 19.3506L0.281838 19.3434L0.277057 19.3362L0.269825 19.3314H0.257812V19.2834L0.281838 19.2882L0.305863 19.2954L0.413977 19.3074C0.486053 19.3154 0.682268 19.3274 1.0026 19.3434C1.32295 19.3594 1.66329 19.3594 2.02367 19.3434C2.38405 19.3274 2.75246 19.2914 3.12884 19.2354C3.50524 19.1794 3.94971 19.0835 4.46224 18.9475C4.9748 18.8115 5.44569 18.65 5.87495 18.4629C6.3026 18.2741 6.60691 18.1334 6.78792 18.0406C6.96729 17.9494 7.24118 17.7799 7.60956 17.532L8.16214 17.1601L8.16694 17.1529L8.17415 17.1481L8.18138 17.1433L8.18616 17.1361L8.19097 17.1289L8.19818 17.1241L8.20541 17.1193L8.21019 17.1121L8.23422 17.1049L8.25824 17.1001L8.26305 17.0761L8.27025 17.0521L8.27748 17.0473L8.28227 17.0401L8.09006 17.0281C7.96194 17.0201 7.8378 17.0121 7.71767 17.0041C7.59754 16.9962 7.40935 16.9602 7.15308 16.8962C6.89682 16.8322 6.62053 16.7362 6.3242 16.6083C6.0279 16.4803 5.7396 16.3284 5.45929 16.1524C5.17901 15.9765 4.97638 15.8301 4.85145 15.7134C4.72813 15.5982 4.56795 15.4351 4.37095 15.2239C4.17555 15.0112 4.00576 14.7929 3.86161 14.5689C3.71746 14.345 3.57972 14.0867 3.4484 13.794L3.24896 13.3573L3.23695 13.3214L3.22494 13.2854L3.21773 13.2614L3.21293 13.2374L3.24896 13.2422L3.285 13.2494L3.54928 13.2854C3.72548 13.3094 4.00177 13.3174 4.37815 13.3094C4.75456 13.3014 5.01482 13.2854 5.15898 13.2614C5.30313 13.2374 5.39123 13.2214 5.42325 13.2134L5.4713 13.2014L5.53137 13.1894L5.59143 13.1774L5.59624 13.1702L5.60344 13.1654L5.61068 13.1606L5.61546 13.1534L5.56741 13.1414L5.51936 13.1294L5.4713 13.1174L5.42325 13.1054L5.3752 13.0934C5.34318 13.0854 5.28713 13.0694 5.20703 13.0454C5.12695 13.0215 4.91072 12.9335 4.55834 12.7815C4.20599 12.6296 3.92568 12.4816 3.71746 12.3377C3.50871 12.1933 3.30968 12.0354 3.12163 11.865C2.93423 11.6923 2.72843 11.47 2.50418 11.1981C2.27995 10.9262 2.07975 10.6102 1.90355 10.2504C1.72737 9.89049 1.59523 9.54661 1.50713 9.21871C1.41938 8.89274 1.36149 8.55947 1.33417 8.22303L1.2909 7.7192L1.31493 7.724L1.33895 7.7312L1.36298 7.74319L1.387 7.75519L1.41103 7.76719L1.43505 7.77918L1.80744 7.94713C2.05572 8.0591 2.36404 8.15507 2.73242 8.23503C3.10082 8.315 3.32104 8.359 3.39312 8.36699L3.50123 8.37898H3.71746L3.71268 8.37179L3.70544 8.36699L3.69824 8.36219L3.69343 8.35499L3.68865 8.34779L3.68142 8.343L3.67421 8.3382L3.66941 8.331L3.64538 8.319L3.62136 8.30701L3.61657 8.29981L3.60934 8.29501L3.60214 8.29021L3.59733 8.28302L3.57331 8.27102L3.54928 8.25902L3.5445 8.25183C3.53969 8.24861 3.47081 8.19744 3.33786 8.09828C3.20651 7.99751 3.06877 7.86716 2.92462 7.7072C2.78047 7.54725 2.63632 7.3793 2.49217 7.20337C2.34775 7.02703 2.21912 6.83837 2.10776 6.63956C1.99566 6.43963 1.87712 6.18529 1.75219 5.87661C1.62886 5.56951 1.53517 5.26001 1.47109 4.94811C1.40704 4.63622 1.371 4.32832 1.36298 4.02442C1.35498 3.72051 1.36298 3.4606 1.387 3.24467C1.41103 3.02874 1.45908 2.78482 1.53115 2.51291C1.60323 2.24101 1.70736 1.95311 1.84348 1.6492L2.0477 1.19335L2.05971 1.15736L2.07172 1.12137L2.07896 1.11657L2.08374 1.10938L2.08854 1.10218L2.09575 1.09738L2.10298 1.10218L2.10776 1.10938L2.11257 1.11657L2.11977 1.12137L2.12701 1.12617L2.13179 1.13337L2.13659 1.14057L2.1438 1.14536L2.15581 1.16936L2.16782 1.19335L2.17506 1.19815L2.17984 1.20534L2.50418 1.56523C2.72041 1.80515 2.97668 2.07307 3.27299 2.36896C3.56932 2.66486 3.73348 2.81841 3.76551 2.82961C3.79756 2.8424 3.83758 2.87918 3.88563 2.93997C3.93368 2.99916 4.09386 3.14072 4.36614 3.36463C4.63844 3.58855 4.99481 3.84848 5.43527 4.14438C5.87575 4.44027 6.36425 4.73218 6.90081 5.02009C7.43739 5.30799 8.014 5.5679 8.63063 5.79983C9.24729 6.03176 9.67975 6.18371 9.928 6.25568C10.1763 6.32766 10.6007 6.41962 11.2013 6.53159C11.802 6.64356 12.2545 6.71554 12.5588 6.74752C12.8631 6.7795 13.0713 6.7979 13.1834 6.8027L13.3516 6.8075L13.3468 6.77151L13.3396 6.73552L13.2915 6.43562C13.2595 6.2357 13.2435 5.95578 13.2435 5.5959C13.2435 5.23602 13.2715 4.90414 13.3276 4.60023C13.3837 4.29632 13.4677 3.98843 13.5798 3.67653C13.692 3.36463 13.8017 3.1143 13.909 2.92558C14.0179 2.73844 14.1605 2.52491 14.3366 2.28499C14.5128 2.04507 14.7411 1.79716 15.0214 1.54123C15.3017 1.28531 15.622 1.05738 15.9824 0.857458C16.3428 0.657532 16.6751 0.505566 16.9794 0.401608C17.2838 0.297651 17.54 0.229657 17.7482 0.197676C17.9565 0.165694 18.0606 0.147292 18.0606 0.142494Z" fill="#D68240"/>
</svg>
